<?xml version="1.0" encoding="UTF-8"?>
<!DOCTYPE svg PUBLIC "-//W3C//DTD SVG 1.1//EN" "http://www.w3.org/Graphics/SVG/1.1/DTD/svg11.dtd">
<svg version="1.1" xmlns="http://www.w3.org/2000/svg" xmlns:xlink="http://www.w3.org/1999/xlink" x="0" y="0" width="100%" height="auto" viewBox="0, 0, 1584, 396">
  <defs>
    <linearGradient id="Gradient_1" gradientUnits="userSpaceOnUse" x1="143.232" y1="84.432" x2="1440.768" y2="311.568">
      <stop offset="0.5" stop-color="#1D3557"/>
      <stop offset="1" stop-color="#457B9D"/>
    </linearGradient>
  </defs>
  <g id="Background">
    <path d="M0,0 L1584,0 L1584,396 L0,396 L0,0 z" fill="url(#Gradient_1)"/>
  </g>
  <g id="Icon">
    <path d="M44.214,86.424 C44.42,87.857 44.559,88.521 44.871,89.325 C45.531,91.039 46.541,92.368 47.936,93.315 C49.61,94.436 52.403,95.141 55.268,95.148 C59.006,95.157 61.767,94.29 63.623,92.512 C65.058,91.083 65.831,89.059 65.837,86.579 C65.843,83.959 64.939,82.036 62.952,80.564 C61.696,79.688 60.021,79.02 57.263,78.42 C53.387,77.538 53.108,77.467 52.34,77.151 C50.735,76.449 49.968,75.434 49.972,73.967 C49.977,71.696 52.042,70.164 55.081,70.171 C57.002,70.175 58.538,70.773 59.443,71.858 C60.036,72.558 60.279,73.152 60.486,74.34 L65.482,73.758 C65.068,71.905 64.651,70.856 63.78,69.702 C62.074,67.392 59.072,66.163 55.09,66.153 C49.082,66.14 45.162,69.275 45.151,74.13 C45.145,76.471 46.049,78.394 47.828,79.795 C49.083,80.776 50.479,81.339 53.097,81.938 C57.916,83.067 58.125,83.103 59.172,83.664 C60.253,84.261 60.914,85.45 60.911,86.882 C60.905,89.502 58.805,91.069 55.312,91.061 C53.042,91.056 51.227,90.318 50.217,88.988 C49.59,88.183 49.382,87.484 49.246,85.912 z" fill="#FFFFFF"/>
    <path d="M69.9,66.816 C70.071,68.144 70.139,69.297 70.134,71.393 L70.091,90.082 C70.086,92.003 70.014,93.191 69.836,94.623 L74.761,94.634 C74.555,93.271 74.522,92.433 74.527,90.162 L74.532,87.891 L77.403,85.173 L81.163,90.701 C82.625,92.836 83.043,93.535 83.46,94.654 L89.678,94.668 C88.876,93.863 88.876,93.863 86.508,90.609 L80.623,82.526 L85.594,77.821 C87.1,76.393 87.1,76.393 89.095,74.616 L82.563,74.601 C82.002,75.473 81.406,76.17 79.796,77.703 L74.544,82.896 L74.57,71.403 C74.575,69.377 74.648,68.155 74.825,66.828 z" fill="#FFFFFF"/>
    <path d="M127.155,35 L127.155,127.155 L35,127.155 L35,35 L127.155,35 z M121.884,40.271 L40.271,40.271 L40.271,121.884 L121.884,121.884 L121.884,40.271 z" fill="#FFFFFF"/>
  </g>
  <g id="Spectra">
    <g>
      <path d="M1584.5,395.045 C1572.552,395.045 1560.08,392.394 1523.599,378.449 C1496.912,368.248 1480.618,351.357 1469.365,332.476 C1445.48,292.397 1444,236.373 1436.528,174.881 C1422.749,61.497 1418.119,44.473 1403.157,156.84 C1397.857,196.641 1387.674,230.52 1363.85,256.523 C1316.347,308.37 1262.472,334.131 1241.444,341.816 C1217.371,350.615 1086.897,392.152 987.5,387.546 C946.33,385.638 914.88,383.509 886.63,385.051 C835.06,387.868 793.099,395.197 784.74,396.5 L424.842,395.447 C324.586,393.187 307.868,359.056 273.433,293.466 C251.022,250.779 234.264,196.817 220.935,135.699 C200.967,67.888 199.573,89.329 181.508,135.327 C163.427,181.365 159.405,178.345 139.691,189.704 C119.977,201.064 0.5,220.804 0.5,220.804" fill-opacity="0" stroke="#FFFFFF" stroke-width="2" id="path5943"/>
      <path d="M3.567,321.763 C3.567,321.763 89.144,316.269 124.459,265.515 C131.811,254.949 142.523,246.849 150.03,240.167 C174.627,218.274 185.048,215.677 207.649,211.259 C258.371,201.343 290.414,209.449 340.465,138.177 C348.537,126.683 359.951,114.496 367.327,103.243 C394.856,61.244 412.099,25.528 412.099,25.528 C412.099,25.528 427.579,7.713 432.023,25.16 C436.468,42.607 458.691,276.973 471.135,321.242 C479.757,351.913 510.316,371.762 580.259,379.145 C617.744,383.102 670.549,386.842 738.698,386.497 C897.856,385.691 1060.3,375.53 1108.327,344.657 C1137.036,326.202 1163.69,300.66 1173.377,264.474 C1197.99,172.539 1234.533,146.827 1266.713,264.474 C1278.513,307.613 1301.603,354.083 1377.182,369.772 C1426.142,379.935 1493.25,386.633 1584.5,395.54" fill-opacity="0" stroke="#FFFFFF" stroke-width="2" stroke-dasharray="4,1" id="path5939"/>
    </g>
  </g>
  <g id="Website_Icon">
    <g id="c588c018">
      <path d="M846.608,138.158 C850.521,138.157 853.693,141.329 853.693,145.242 L853.693,238.764 C853.693,242.677 850.521,245.849 846.608,245.849 L753.087,245.849 C749.174,245.849 746.001,242.677 746.001,238.764 L746.001,145.242 C746.001,141.329 749.174,138.157 753.087,138.158 L846.608,138.158 z M843.103,142.193 L756.591,142.193 C752.971,142.193 750.037,145.128 750.037,148.747 L750.037,235.26 C750.037,238.879 752.971,241.813 756.591,241.813 L843.103,241.813 C846.723,241.813 849.657,238.879 849.657,235.26 L849.657,148.747 C849.657,145.128 846.723,142.193 843.103,142.193 z M839.384,146.477 C842.692,146.477 845.374,149.159 845.374,152.467 L845.374,231.539 C845.374,234.848 842.692,237.53 839.384,237.53 L760.311,237.53 C757.002,237.53 754.32,234.848 754.32,231.539 L754.32,152.467 C754.321,149.159 757.002,146.477 760.311,146.477 L839.384,146.477 z M776.516,215.654 L759.953,215.654 L759.953,232.218 L776.516,232.218 L776.516,215.654 z M775.57,216.602 L775.57,231.27 L760.901,231.27 L760.901,216.602 L775.57,216.602 z M763.564,221.253 C762.485,221.251 761.78,221.814 761.778,222.687 C761.777,223.108 761.939,223.454 762.259,223.705 C762.485,223.882 762.735,223.983 763.206,224.09 C764.073,224.294 764.11,224.3 764.298,224.4 C764.493,224.508 764.611,224.721 764.611,224.979 C764.609,225.45 764.232,225.732 763.605,225.73 C763.196,225.729 762.87,225.597 762.688,225.358 C762.576,225.213 762.538,225.087 762.514,224.805 L761.61,224.897 C761.647,225.155 761.672,225.274 761.728,225.418 C761.847,225.726 762.028,225.965 762.279,226.135 C762.58,226.337 763.082,226.463 763.596,226.465 C764.268,226.466 764.765,226.31 765.098,225.991 C765.356,225.734 765.495,225.37 765.496,224.925 C765.497,224.454 765.335,224.108 764.977,223.844 C764.752,223.686 764.451,223.566 763.955,223.458 C763.258,223.3 763.208,223.287 763.07,223.23 C762.782,223.104 762.644,222.922 762.645,222.658 C762.646,222.25 763.017,221.974 763.563,221.976 C763.908,221.977 764.184,222.084 764.347,222.279 C764.453,222.404 764.497,222.511 764.534,222.725 L765.432,222.62 C765.358,222.287 765.283,222.099 765.126,221.891 C764.82,221.476 764.28,221.255 763.564,221.253 z M766.226,221.372 C766.257,221.611 766.269,221.819 766.268,222.195 L766.261,225.554 C766.263,225.827 766.248,226.1 766.215,226.37 L767.1,226.372 C767.063,226.128 767.057,225.977 767.058,225.568 L767.059,225.161 L767.575,224.672 L768.251,225.666 C768.514,226.049 768.589,226.175 768.663,226.376 L769.781,226.378 C769.637,226.234 769.637,226.234 769.211,225.649 L768.153,224.196 L769.047,223.351 C769.317,223.094 769.317,223.094 769.676,222.775 L768.502,222.772 C768.401,222.929 768.294,223.054 768.005,223.329 L767.061,224.263 L767.066,222.197 C767.067,221.833 767.08,221.613 767.111,221.375 L766.226,221.372 z M761.248,248.318 L761.248,304.925 L766.946,310.623 C768.432,309.998 767.747,310.141 768.955,310.02 C771.033,310.02 772.717,311.704 772.717,313.782 C772.717,315.86 771.033,317.544 768.955,317.544 C766.878,317.544 765.193,315.86 765.193,313.782 C765.223,312.961 765.425,312.09 766.026,311.489 L759.984,305.448 L759.984,248.318 L761.248,248.318 z M782.084,248.318 L780.821,248.318 L780.821,284.527 L781.005,284.712 L794.205,297.912 C794.63,297.464 794.322,297.758 795.235,297.155 L782.084,284.004 L782.084,248.318 z M828.966,248.318 L827.703,248.318 L827.703,265.13 L858.192,295.619 C859.101,295.79 859.997,296.063 860.828,296.469 L828.966,264.606 L828.966,248.318 z M787.294,248.318 L786.03,248.318 L786.03,282.349 L799.288,295.607 L800.792,295.324 L787.294,281.825 L787.294,248.318 z M792.435,248.318 L791.172,248.318 L791.172,280.189 L791.357,280.373 L806.112,295.129 L807.789,295.281 L807.8,295.283 L807.984,295.214 L792.435,279.666 L792.435,248.318 z M823.756,248.318 L822.493,248.318 L822.493,267.265 L850.435,295.208 C851.928,295.072 851.375,295.09 852.088,295.074 L823.756,266.742 L823.756,248.318 z M802.92,248.318 L801.657,248.318 L801.657,275.687 L817.188,291.219 L817.188,291.044 C817.277,290.267 817.174,290.683 817.572,289.816 L802.92,275.164 L802.92,248.318 z M818.528,248.318 L817.264,248.318 L817.264,269.423 L817.45,269.608 L834.617,286.776 C835.656,287.088 836.749,287.368 837.644,288.016 L818.528,268.899 L818.528,248.318 z M808.129,248.318 L806.866,248.318 L806.866,273.691 L807.051,273.876 L820.622,287.447 C821.516,287.049 821.082,287.207 821.917,286.955 L808.129,273.167 L808.129,248.318 z M813.338,248.318 L812.075,248.318 L812.075,271.581 L812.26,271.766 L826.571,286.077 C827.689,285.975 827.125,286.008 828.263,285.982 L813.338,271.057 L813.338,248.318 z M766.457,248.318 L765.193,248.318 L765.193,291.057 L779.939,305.802 L780.05,305.761 L780.051,305.761 L781.237,305.313 L766.457,290.533 L766.457,248.318 z M771.666,248.318 L770.402,248.318 L770.402,288.842 L785.328,303.768 L786.625,303.278 L771.666,288.319 L771.666,248.318 z M776.875,248.318 L775.612,248.318 L775.612,286.685 L775.796,286.87 L790.676,301.749 L791.973,301.259 L776.875,286.161 L776.875,248.318 z M797.712,248.318 L796.448,248.318 L796.448,278.054 L812.067,293.673 L813.364,293.182 L797.712,277.53 L797.712,248.318 z M751.56,316.094 L751.56,316.095 C749.974,316.74 750.585,316.337 749.619,317.127 C748.495,318.352 748.586,318.903 748.586,320.505 C748.751,321.288 749.098,321.87 749.619,322.445 C751.101,323.801 752.823,323.913 754.503,322.802 L763.699,331.998 L763.699,344.303 L753.439,354.563 L753.439,364.824 C751.557,365.125 750.344,366.667 750.25,368.527 C750.23,369.883 750.943,371.145 752.114,371.829 C753.286,372.513 754.735,372.513 755.907,371.829 C757.078,371.145 757.791,369.883 757.771,368.527 C757.743,366.698 756.481,365.211 754.702,364.848 L754.702,355.087 L764.777,345.011 L764.963,344.826 L764.963,331.474 L764.777,331.29 L755.375,321.888 C756.451,320.34 756.152,318.471 754.938,317.127 C753.807,316.047 753.016,316.095 751.56,316.094 z M731.362,310.02 C732.133,310.005 732.852,310.408 733.242,311.074 C733.632,311.74 733.632,312.564 733.242,313.23 C732.852,313.896 732.133,314.299 731.362,314.284 C730.2,314.262 729.27,313.314 729.27,312.152 C729.27,310.99 730.2,310.042 731.362,310.02 z M721.254,364.245 C722.431,364.245 723.386,365.2 723.386,366.377 C723.386,367.555 722.431,368.51 721.254,368.51 C720.076,368.51 719.121,367.555 719.121,366.377 C719.121,365.2 720.076,364.245 721.254,364.245 z M721.885,362.629 L721.885,343.784 L732.146,333.523 L732.146,315.87 C733.964,315.539 735.09,313.924 735.179,312.152 C734.987,310.243 734.008,308.961 732.131,308.413 L731.362,308.335 C729.254,308.335 727.545,310.044 727.545,312.152 C727.606,314.221 728.923,315.532 730.882,315.931 L730.882,333 L720.622,343.261 L720.622,359.98 L720.622,359.98 L720.622,362.629 C718.734,362.941 717.53,364.52 717.437,366.377 C717.437,368.485 719.146,370.194 721.254,370.194 C723.362,370.194 725.07,368.485 725.07,366.377 C725.043,364.47 723.717,363.003 721.885,362.629 z M737.965,293.14 L737.207,293.063 C735.13,293.063 733.446,294.747 733.447,296.824 C733.475,298.697 734.775,300.148 736.575,300.515 L736.575,328.955 L736.576,328.955 L736.576,356.416 C734.72,356.724 733.539,358.282 733.447,360.107 C733.447,362.184 735.131,363.868 737.208,363.868 C739.285,363.868 740.968,362.184 740.968,360.107 C740.941,358.235 739.64,356.784 737.839,356.416 L737.839,300.515 C739.695,300.207 740.876,298.65 740.968,296.824 C740.779,294.943 739.815,293.68 737.965,293.14 z M839.384,248.318 L838.121,248.318 L838.121,257.443 L838.306,257.628 L902.843,322.165 L902.843,333.003 L902.844,333.003 L902.844,342.518 C900.935,342.813 899.688,344.337 899.593,346.233 C899.593,348.31 901.276,349.994 903.353,349.994 C905.43,349.994 907.114,348.31 907.114,346.233 C907.083,344.449 905.861,342.924 904.107,342.567 L904.107,321.642 L839.384,256.92 L839.384,248.318 z M723.869,329.194 L723.869,296.705 L755.854,264.721 L756.039,264.536 L756.039,248.318 L754.775,248.318 L754.775,264.012 L722.606,296.182 L722.606,328.671 L711.252,340.023 C709.668,338.89 707.779,339.112 706.373,340.383 C705.249,341.608 705.34,342.159 705.341,343.76 C705.505,344.545 705.853,345.126 706.373,345.702 C707.842,347.17 710.223,347.17 711.692,345.702 C712.956,344.41 713.12,342.439 712.127,340.936 L723.869,329.194 z M752.543,277.271 L751.56,277.262 C749.974,277.908 750.585,277.505 749.619,278.294 C748.318,279.655 748.18,281.542 749.216,283.108 L743.489,288.835 L743.489,328.955 L743.49,328.955 L743.49,330.03 L751.625,338.166 C750.546,339.716 750.84,341.586 752.059,342.934 C753.528,344.403 755.909,344.403 757.377,342.934 C758.846,341.465 758.846,339.084 757.377,337.616 C755.908,336.266 754.167,336.151 752.5,337.254 L744.753,329.507 L744.753,289.358 L750.107,284.005 C751.676,285.115 753.556,284.861 754.938,283.613 C756.406,282.144 756.406,279.763 754.938,278.294 C754.208,277.663 753.561,277.298 752.543,277.271 z M750.83,248.318 L749.566,248.318 L749.566,255.7 L735.347,269.919 C733.791,268.506 731.665,268.67 730.156,270.034 C729.031,271.259 729.123,271.811 729.123,273.412 C729.287,274.196 729.635,274.777 730.156,275.352 C731.624,276.822 734.006,276.822 735.474,275.353 C736.367,274.44 736.693,273.244 736.507,271.975 L736.145,270.944 L736.131,270.922 L750.83,256.223 L750.83,248.318 z M844.402,248.318 L843.139,248.318 L843.139,251.923 L855.829,264.614 C854.709,266.189 854.948,268.074 856.207,269.466 C857.682,270.896 860.032,270.878 861.485,269.425 C862.938,267.973 862.956,265.623 861.526,264.147 C860.179,262.86 858.29,262.701 856.733,263.731 L844.402,251.4 L844.402,248.318 z M833.863,248.318 L832.6,248.318 L832.6,260.701 L845.29,273.392 C844.171,274.968 844.41,276.853 845.669,278.245 C847.137,279.713 849.519,279.713 850.987,278.245 C852.456,276.776 852.456,274.395 850.987,272.926 C849.641,271.639 847.751,271.48 846.194,272.509 L833.863,260.178 L833.863,248.318 z" fill="#FFFFFF"/>
      <path d="M798.416,303.802 L798.415,303.812 C798.446,304.514 799.051,304.936 799.594,305.27 L787.169,309.962 L804.886,316.746 L830.032,326.252 L871.968,310.389 L859.311,305.534 C859.829,305.287 860.37,305.007 860.729,304.54 L860.904,304.256 L860.906,304.248 L875.567,309.872 L875.567,347.822 L875.567,347.772 L830.14,364.945 L783.569,347.34 L783.569,309.407 L784.522,309.048 L784.523,309.048 L798.416,303.802 z M873.738,311.766 L830.719,328.029 L830.719,362.872 L873.738,346.61 L873.738,311.766 z M838.285,295.571 C838.259,295.657 838.245,295.746 838.207,295.827 C837.961,296.353 837.425,296.693 836.93,296.95 L848.136,301.248 C849.469,301.006 850.824,300.904 852.177,300.9 L838.285,295.571 z M820.832,295.338 L806.035,300.925 C806.855,300.897 806.481,300.904 807.155,300.899 C808.291,300.908 809.43,300.96 810.555,301.132 L821.974,296.821 C821.439,296.493 820.859,296.069 820.828,295.383 L820.832,295.338 z" fill="#FFFFFF"/>
      <path d="M798.916,304.302 L798.915,304.312 C798.946,305.014 799.551,305.436 800.094,305.77 L787.669,310.462 L805.386,317.246 L830.532,326.752 L872.468,310.889 L859.811,306.034 C860.329,305.787 860.87,305.507 861.229,305.04 L861.404,304.756 L861.406,304.748 L876.067,310.372 L876.067,348.322 L876.067,348.272 L830.64,365.445 L784.069,347.84 L784.069,309.907 L785.022,309.548 L785.023,309.548 L798.916,304.302 z M874.238,312.266 L831.219,328.529 L831.219,363.372 L874.238,347.11 L874.238,312.266 z M838.785,296.071 C838.759,296.157 838.745,296.246 838.707,296.327 C838.461,296.853 837.925,297.193 837.43,297.45 L848.636,301.748 C849.969,301.506 851.324,301.404 852.677,301.4 L838.785,296.071 z M821.332,295.838 L806.535,301.425 C807.355,301.397 806.981,301.404 807.655,301.399 C808.791,301.408 809.93,301.46 811.055,301.632 L822.474,297.321 C821.939,296.993 821.359,296.569 821.328,295.883 L821.332,295.838 z" fill-opacity="0" stroke="#FFFFFF" stroke-width="1"/>
      <path d="M807.135,299.106 C812.97,299.106 817.7,301.213 817.7,303.812 L817.7,309.639 C817.7,312.237 812.97,314.344 807.135,314.344 C801.3,314.344 796.571,312.237 796.571,309.639 L796.571,303.812 C796.571,301.213 801.3,299.106 807.135,299.106 z M815.875,306.447 C813.304,308.073 810.119,308.485 807.135,308.518 L807.135,312.475 C811.962,312.475 815.875,311.171 815.875,309.562 L815.875,306.447 z M807.135,300.899 C802.308,300.899 798.395,302.203 798.395,303.812 C798.395,305.421 802.308,306.725 807.135,306.725 C811.962,306.725 815.875,305.421 815.875,303.812 C815.875,302.203 811.962,300.899 807.135,300.899 z M829.568,292.47 C834.395,292.47 838.308,293.775 838.308,295.383 C838.308,296.992 834.395,298.297 829.568,298.297 C824.742,298.297 820.828,296.992 820.828,295.383 C820.828,293.775 824.742,292.47 829.568,292.47 z M838.308,298.019 L838.308,301.133 C838.308,302.742 834.395,304.047 829.568,304.047 L829.568,300.089 C832.552,300.056 835.737,299.644 838.308,298.019 z M829.568,290.678 C823.734,290.678 819.004,292.785 819.004,295.383 L819.004,301.21 C819.004,303.809 823.734,305.916 829.568,305.916 C835.403,305.916 840.132,303.809 840.132,301.21 L840.132,295.383 C840.132,292.785 835.403,290.678 829.568,290.678 z M829.568,309.585 C834.395,309.585 838.308,310.889 838.308,312.498 C838.308,314.107 834.395,315.411 829.568,315.411 C824.742,315.411 820.828,314.107 820.828,312.498 C820.828,310.889 824.742,309.585 829.568,309.585 z M838.308,315.133 L838.308,318.248 C838.308,319.857 834.395,321.161 829.568,321.161 L829.568,317.204 C832.552,317.17 835.737,316.759 838.308,315.133 z M829.568,307.792 C823.734,307.792 819.004,309.899 819.004,312.498 L819.004,318.324 C819.004,320.923 823.734,323.03 829.568,323.03 C835.403,323.03 840.132,320.923 840.132,318.324 L840.132,312.498 C840.132,309.899 835.403,307.792 829.568,307.792 z M852.265,300.899 C857.092,300.899 861.004,302.203 861.004,303.812 C861.004,305.421 857.092,306.725 852.265,306.725 C847.438,306.725 843.525,305.421 843.525,303.812 C843.525,302.203 847.438,300.899 852.265,300.899 z M861.004,306.447 L861.004,309.562 C861.004,311.171 857.092,312.475 852.265,312.475 L852.265,308.518 C855.249,308.485 858.434,308.073 861.004,306.447 z M852.265,299.106 C846.43,299.106 841.7,301.213 841.7,303.812 L841.7,309.639 C841.7,312.237 846.43,314.344 852.265,314.344 C858.099,314.344 862.829,312.237 862.829,309.639 L862.829,303.812 C862.829,301.213 858.099,299.106 852.265,299.106 z" fill="#FFFFFF"/>
      <path d="M807.635,299.606 C813.47,299.606 818.2,301.713 818.2,304.312 L818.2,310.139 C818.2,312.737 813.47,314.844 807.635,314.844 C801.8,314.844 797.071,312.737 797.071,310.139 L797.071,304.312 C797.071,301.713 801.8,299.606 807.635,299.606 z M816.375,306.947 C813.804,308.573 810.619,308.985 807.635,309.018 L807.635,312.975 C812.462,312.975 816.375,311.671 816.375,310.062 L816.375,306.947 z M807.635,301.399 C802.808,301.399 798.895,302.703 798.895,304.312 C798.895,305.921 802.808,307.225 807.635,307.225 C812.462,307.225 816.375,305.921 816.375,304.312 C816.375,302.703 812.462,301.399 807.635,301.399 z M830.068,292.97 C834.895,292.97 838.808,294.275 838.808,295.883 C838.808,297.492 834.895,298.797 830.068,298.797 C825.242,298.797 821.328,297.492 821.328,295.883 C821.328,294.275 825.242,292.97 830.068,292.97 z M838.808,298.519 L838.808,301.633 C838.808,303.242 834.895,304.547 830.068,304.547 L830.068,300.589 C833.052,300.556 836.237,300.144 838.808,298.519 z M830.068,291.178 C824.234,291.178 819.504,293.285 819.504,295.883 L819.504,301.71 C819.504,304.309 824.234,306.416 830.068,306.416 C835.903,306.416 840.632,304.309 840.632,301.71 L840.632,295.883 C840.632,293.285 835.903,291.178 830.068,291.178 z M830.068,310.085 C834.895,310.085 838.808,311.389 838.808,312.998 C838.808,314.607 834.895,315.911 830.068,315.911 C825.242,315.911 821.328,314.607 821.328,312.998 C821.328,311.389 825.242,310.085 830.068,310.085 z M838.808,315.633 L838.808,318.748 C838.808,320.357 834.895,321.661 830.068,321.661 L830.068,317.704 C833.052,317.67 836.237,317.259 838.808,315.633 z M830.068,308.292 C824.234,308.292 819.504,310.399 819.504,312.998 L819.504,318.824 C819.504,321.423 824.234,323.53 830.068,323.53 C835.903,323.53 840.632,321.423 840.632,318.824 L840.632,312.998 C840.632,310.399 835.903,308.292 830.068,308.292 z M852.765,301.399 C857.592,301.399 861.504,302.703 861.504,304.312 C861.504,305.921 857.592,307.225 852.765,307.225 C847.938,307.225 844.025,305.921 844.025,304.312 C844.025,302.703 847.938,301.399 852.765,301.399 z M861.504,306.947 L861.504,310.062 C861.504,311.671 857.592,312.975 852.765,312.975 L852.765,309.018 C855.749,308.985 858.934,308.573 861.504,306.947 z M852.765,299.606 C846.93,299.606 842.2,301.713 842.2,304.312 L842.2,310.139 C842.2,312.737 846.93,314.844 852.765,314.844 C858.599,314.844 863.329,312.737 863.329,310.139 L863.329,304.312 C863.329,301.713 858.599,299.606 852.765,299.606 z" fill-opacity="0" stroke="#FFFFFF" stroke-width="1"/>
      <path d="M635.587,194.469 C635.587,196.547 633.903,198.23 631.826,198.23 C629.979,198.202 628.507,196.925 628.143,195.138 L577.993,195.138 L560.012,213.119 L559.827,213.304 L536.976,213.304 C536.677,215.197 535.142,216.423 533.268,216.518 C531.912,216.537 530.65,215.825 529.966,214.653 C529.282,213.481 529.282,212.032 529.966,210.861 C530.65,209.689 531.912,208.977 533.268,208.996 C535.06,209.011 536.595,210.283 536.942,212.041 L559.303,212.041 L577.47,193.874 L628.128,193.874 C628.431,192.003 629.979,190.802 631.826,190.709 C633.903,190.708 635.587,192.392 635.587,194.469 z M743.728,208.581 L743.728,207.318 L708.042,207.318 L667.904,167.179 L615.584,167.179 L595.73,147.325 L537.169,147.325 C536.792,145.477 535.414,144.096 533.452,144.071 C531.375,144.071 529.691,145.755 529.691,147.832 C529.691,149.909 531.375,151.593 533.452,151.593 C535.207,151.504 536.794,150.388 537.118,148.588 L595.206,148.588 L614.876,168.257 L615.061,168.443 L667.381,168.443 L707.334,208.397 L707.519,208.581 L743.728,208.581 z M541.848,117.976 C541.862,118.748 541.459,119.467 540.794,119.857 C540.128,120.247 539.304,120.247 538.638,119.857 C537.972,119.467 537.569,118.748 537.584,117.976 C537.606,116.815 538.554,115.885 539.716,115.885 C540.878,115.885 541.826,116.815 541.848,117.976 z M743.728,177.327 L743.728,176.064 L720.988,176.064 L680.92,135.995 L628.534,135.995 L609.951,117.412 L543.477,117.412 C543.098,115.555 541.671,114.186 539.715,114.159 C537.607,114.159 535.898,115.868 535.898,117.976 C535.898,120.084 537.607,121.793 539.715,121.793 C541.535,121.702 543.131,120.533 543.45,118.675 L609.427,118.675 L627.825,137.073 L628.011,137.259 L680.397,137.259 L720.281,177.142 L720.465,177.327 L743.728,177.327 z M637.062,112.534 C637.062,111.079 637.109,110.287 636.029,109.158 C634.651,107.912 632.771,107.655 631.203,108.762 L615.728,93.287 L554.029,93.287 L543.87,83.128 C544.868,81.618 544.727,79.644 543.449,78.341 C541.976,76.896 539.614,76.907 538.155,78.366 C536.697,79.825 536.685,82.187 538.13,83.66 C539.525,84.92 541.41,85.156 542.988,84.034 L553.505,94.551 L615.205,94.551 L630.31,109.657 C629.273,111.226 629.407,113.113 630.71,114.476 C631.287,114.996 631.867,115.344 632.652,115.508 C634.253,115.508 634.804,115.6 636.029,114.476 C636.819,113.509 636.415,114.121 637.062,112.534 z M675.952,237.843 C675.952,236.387 676,235.594 674.919,234.465 C673.576,233.25 671.706,232.951 670.159,234.027 L660.757,224.625 L660.572,224.44 L603.908,224.44 L603.723,224.625 L593.647,234.7 L547.534,234.7 C547.171,232.922 545.685,231.66 543.855,231.631 C541.778,231.631 540.094,233.314 540.094,235.391 C540.094,237.468 541.778,239.152 543.855,239.152 C545.715,239.059 547.257,237.845 547.558,235.963 L594.171,235.963 L604.431,225.703 L660.048,225.703 L669.245,234.899 C668.133,236.58 668.245,238.301 669.601,239.783 C670.177,240.304 670.757,240.652 671.542,240.817 C673.143,240.817 673.694,240.908 674.919,239.783 C675.709,238.817 675.305,239.429 675.952,237.843 z M743.728,203.372 L743.728,202.109 L710.22,202.109 L669.923,161.811 L617.763,161.811 L598.453,142.501 L560.352,142.501 L555.412,137.561 C556.447,135.996 556.307,134.108 555.008,132.75 C553.539,131.281 551.158,131.281 549.69,132.75 C548.221,134.218 548.221,136.599 549.69,138.068 C551.071,139.317 552.953,139.57 554.523,138.458 L559.829,143.764 L597.93,143.764 L617.239,163.075 L669.399,163.075 L709.698,203.372 L743.728,203.372 z M743.728,224.209 L743.728,222.946 L701.512,222.946 L661.559,182.991 L661.374,182.807 L609.004,182.807 L591.69,165.493 L591.506,165.308 L560.584,165.308 C560.214,163.494 558.785,162.17 556.886,162.143 C554.809,162.143 553.125,163.826 553.125,165.904 C553.125,167.981 554.809,169.664 556.886,169.664 C558.691,169.573 560.257,168.411 560.57,166.571 L590.982,166.571 L608.48,184.07 L660.85,184.07 L700.99,224.209 L743.728,224.209 z M743.728,192.954 L743.728,191.691 L714.515,191.691 L674.562,151.737 L674.377,151.552 L622.057,151.552 L603.239,132.733 L564.927,132.733 L560.448,128.255 C560.56,128.085 560.701,127.93 560.785,127.745 C561.492,126.189 561.302,124.574 560.114,123.336 C558.645,121.868 556.264,121.868 554.796,123.337 C553.327,124.805 553.327,127.187 554.796,128.655 C556.122,129.853 557.985,130.174 559.522,129.115 L564.404,133.997 L602.716,133.997 L621.534,152.816 L673.853,152.816 L713.993,192.954 L743.728,192.954 z M682.026,258.04 C682.041,258.812 681.638,259.531 680.972,259.921 C680.307,260.311 679.482,260.311 678.817,259.921 C678.151,259.531 677.748,258.812 677.762,258.04 C677.785,256.879 678.733,255.949 679.894,255.949 C681.056,255.949 682.004,256.879 682.026,258.04 z M562.059,268.148 C562.059,269.327 561.103,270.281 559.925,270.281 C558.747,270.28 557.793,269.325 557.793,268.147 C557.793,266.969 558.749,266.014 559.927,266.015 C561.105,266.015 562.06,266.97 562.059,268.148 z M683.711,258.04 C683.711,255.932 682.002,254.223 679.894,254.223 C678.122,254.313 676.508,255.438 676.177,257.257 L620.624,257.257 L610.364,267.517 L563.674,267.517 C563.301,265.686 561.834,264.359 559.926,264.332 C557.848,264.373 556.185,266.07 556.185,268.148 C556.185,270.227 557.848,271.924 559.926,271.965 C561.785,271.872 563.363,270.668 563.674,268.78 L610.887,268.78 L621.148,258.52 L676.115,258.52 C676.515,260.479 677.826,261.796 679.894,261.857 C682.002,261.858 683.711,260.149 683.711,258.04 z M743.728,172.138 L743.728,170.875 L723.146,170.875 L683.008,130.736 L630.688,130.736 L612.596,112.643 L571.93,112.643 L566.574,107.287 C567.566,105.798 567.38,103.817 566.128,102.539 C564.659,101.071 562.278,101.071 560.809,102.539 C559.341,104.008 559.341,106.389 560.809,107.857 C562.225,109.137 564.117,109.347 565.706,108.206 L571.222,113.722 L571.407,113.907 L612.074,113.907 L630.165,131.999 L682.484,131.999 L722.438,171.953 L722.623,172.138 L743.728,172.138 z M743.728,198.23 L743.728,196.967 L712.381,196.967 L672.198,156.784 L619.922,156.784 L601.054,137.916 L583.579,137.916 C583.48,135.953 581.736,134.481 579.833,134.446 C577.756,134.446 576.072,136.13 576.072,138.207 C576.072,140.284 577.756,141.968 579.833,141.968 C581.465,141.885 583.097,140.876 583.454,139.179 L600.531,139.179 L619.214,157.862 L619.4,158.047 L671.675,158.047 L711.672,198.046 L711.857,198.23 L743.728,198.23 z M581.961,173.934 L581.493,174.639 C580.789,175.141 581.223,174.901 580.132,175.245 L579.578,175.225 C578.678,174.858 579.025,175.087 578.477,174.639 C577.644,173.806 577.644,172.456 578.477,171.623 C579.31,170.791 580.66,170.791 581.493,171.623 C582.258,172.774 581.961,172.047 581.961,173.934 z M678.822,207.439 C678.822,205.983 678.869,205.191 677.789,204.061 C676.464,202.863 674.601,202.542 673.063,203.6 L657.332,187.869 L595.632,187.869 L583.088,175.325 C584.142,173.733 584.009,171.818 582.684,170.432 C581.19,168.958 578.787,168.966 577.303,170.45 C575.819,171.933 575.812,174.337 577.286,175.83 C577.871,176.358 578.46,176.711 579.256,176.878 L579.819,176.881 C580.67,176.843 581.514,176.795 582.202,176.225 L595.109,189.133 L656.808,189.133 L672.137,204.461 C672.024,204.631 671.883,204.786 671.799,204.972 C671.094,206.528 671.283,208.143 672.471,209.38 C673.046,209.901 673.628,210.249 674.411,210.413 C676.013,210.413 676.564,210.505 677.789,209.38 C678.578,208.414 678.175,209.025 678.822,207.439 z M743.728,229.418 L743.728,228.154 L687.121,228.154 L667.46,208.493 L593.091,208.493 L582.998,218.587 C581.537,217.621 579.577,217.903 578.347,219.098 C576.902,220.571 576.914,222.932 578.373,224.391 C579.831,225.85 582.193,225.861 583.666,224.417 C584.993,222.949 585.133,221.041 583.949,219.422 L593.615,209.756 L666.937,209.756 L686.598,229.418 L743.728,229.418 z M743.728,187.745 L743.728,186.482 L716.882,186.482 L676.535,146.135 L624.215,146.135 L605.788,127.708 L586.365,127.708 C585.993,125.887 584.573,124.554 582.664,124.527 C580.587,124.527 578.903,126.21 578.903,128.287 C578.903,130.364 580.587,132.048 582.664,132.048 C584.46,131.958 586.03,130.804 586.344,128.971 L605.265,128.971 L623.692,147.398 L676.011,147.398 L716.358,187.745 L743.728,187.745 z M658.16,200.343 C658.16,198.266 656.477,196.582 654.4,196.582 C652.574,196.674 651.017,197.856 650.709,199.711 L589.093,199.711 C588.727,197.91 587.276,196.609 585.402,196.582 C583.325,196.582 581.642,198.266 581.642,200.343 C581.642,202.42 583.325,204.104 585.402,204.104 C587.228,204.012 588.785,202.83 589.093,200.975 L650.709,200.975 C651.076,202.776 652.527,204.076 654.4,204.104 C656.477,204.104 658.161,202.42 658.16,200.343 z M698.983,252.195 C698.982,250.118 697.299,248.435 695.222,248.434 C693.396,248.526 691.839,249.707 691.531,251.563 L590.771,251.563 C590.403,249.762 588.952,248.461 587.08,248.434 C585.003,248.434 583.319,250.118 583.319,252.195 C583.319,254.272 585.003,255.956 587.08,255.956 C588.905,255.863 590.463,254.682 590.771,252.827 L691.531,252.827 C691.898,254.627 693.349,255.928 695.222,255.955 C697.299,255.956 698.983,254.272 698.983,252.195 z M743.728,166.909 L743.728,165.646 L725.304,165.646 L685.351,125.692 L685.165,125.506 L632.809,125.506 L614.378,107.076 L594.43,107.076 C594.059,105.261 592.632,103.935 590.731,103.908 C589.375,103.889 588.113,104.601 587.429,105.773 C586.745,106.945 586.745,108.394 587.429,109.565 C588.113,110.737 589.375,111.449 590.731,111.43 C592.535,111.339 594.102,110.178 594.414,108.34 L613.856,108.34 L632.285,126.77 L684.642,126.77 L724.78,166.909 L743.728,166.909 z M743.728,219 L743.728,217.737 L703.727,217.737 L663.588,177.597 L611.269,177.597 L594.364,160.692 C595.449,159.052 595.334,157.268 593.995,155.828 C592.522,154.383 590.161,154.394 588.702,155.853 C587.243,157.312 587.232,159.674 588.676,161.146 C590.031,162.37 591.902,162.657 593.456,161.572 L610.746,178.861 L663.066,178.861 L703.204,219 L743.728,219 z M674.236,227.978 L673.768,228.683 C673.064,229.185 673.498,228.944 672.407,229.289 L671.853,229.269 C670.953,228.902 671.3,229.131 670.752,228.683 C669.949,227.845 669.963,226.52 670.784,225.699 C671.604,224.879 672.93,224.864 673.768,225.667 C674.533,226.818 674.236,226.09 674.236,227.978 z M593.368,227.978 L592.9,228.683 C592.195,229.185 592.629,228.944 591.539,229.289 L590.984,229.269 C590.086,228.902 590.432,229.131 589.884,228.683 C589.052,227.85 589.052,226.5 589.884,225.667 C590.717,224.835 592.067,224.835 592.9,225.667 C593.664,226.818 593.368,226.09 593.368,227.978 z M676.007,227.904 C676.007,226.427 676.055,225.623 674.959,224.476 C673.558,223.209 671.649,222.951 670.057,224.078 L660.343,214.364 L660.158,214.18 L603.494,214.18 L593.595,224.078 C591.997,223.021 590.084,223.145 588.693,224.476 C587.202,225.966 587.202,228.383 588.693,229.874 C589.277,230.402 589.867,230.755 590.663,230.922 L591.226,230.924 C592.513,230.877 593.11,230.805 594.091,229.874 C595.357,228.473 595.616,226.564 594.489,224.971 L604.017,215.443 L659.635,215.443 L669.163,224.971 C668.107,226.569 668.231,228.483 669.561,229.874 C670.146,230.402 670.735,230.755 671.531,230.922 L672.094,230.924 C673.382,230.877 673.979,230.805 674.959,229.874 C675.761,228.893 675.351,229.514 676.007,227.904 z M743.728,151.281 L743.728,150.018 L735.127,150.018 L670.404,85.295 L599.206,85.295 C598.848,83.542 597.324,82.319 595.54,82.288 C593.463,82.288 591.779,83.972 591.779,86.049 C591.779,88.126 593.463,89.81 595.54,89.81 C597.435,89.714 598.96,88.468 599.255,86.559 L669.88,86.559 L734.418,151.096 L734.603,151.281 L743.728,151.281 z M743.728,234.627 L743.728,233.364 L727.511,233.364 L727.326,233.549 L695.34,265.533 L619.54,265.533 L607.798,277.276 C606.295,276.282 604.324,276.446 603.032,277.71 C601.563,279.179 601.563,281.561 603.032,283.029 C603.608,283.55 604.189,283.897 604.973,284.062 C606.574,284.062 607.125,284.153 608.35,283.029 C609.622,281.622 609.844,279.734 608.711,278.15 L620.063,266.797 L695.864,266.797 L728.034,234.627 L743.728,234.627 z M743.728,213.79 L743.728,212.527 L705.885,212.527 L665.586,172.228 L621.699,172.228 C621.328,170.408 619.906,169.077 617.998,169.05 C615.921,169.05 614.237,170.734 614.237,172.811 C614.237,174.888 615.921,176.572 617.998,176.572 C619.796,176.481 621.365,175.325 621.679,173.491 L665.063,173.491 L705.177,213.606 L705.362,213.79 L743.728,213.79 z M628.881,141.766 C628.881,142.943 627.926,143.898 626.749,143.898 C625.571,143.898 624.616,142.943 624.616,141.766 C624.616,140.588 625.571,139.633 626.749,139.633 C627.926,139.633 628.881,140.588 628.881,141.766 z M743.728,182.536 L743.728,181.273 L718.878,181.273 L678.877,141.271 L678.692,141.087 L630.487,141.087 C630.117,139.274 628.622,137.977 626.749,137.949 C625.367,137.921 624.078,138.642 623.379,139.835 C622.679,141.027 622.679,142.504 623.379,143.697 C624.078,144.889 625.367,145.61 626.749,145.583 C628.634,145.487 630.2,144.258 630.506,142.35 L678.169,142.35 L718.17,182.351 L718.355,182.536 L743.728,182.536 z M714.785,237.843 C714.785,236.387 714.833,235.594 713.752,234.465 C712.283,232.997 709.902,232.997 708.433,234.465 C707.185,235.846 706.931,237.727 708.042,239.296 L702.688,244.649 L647.07,244.649 L639.323,236.902 C640.425,235.235 640.312,233.494 638.962,232.025 C637.489,230.58 635.128,230.592 633.669,232.051 C632.21,233.509 632.199,235.871 633.643,237.344 C634.991,238.562 636.862,238.857 638.411,237.777 L646.547,245.913 L703.211,245.913 L708.937,240.186 C710.504,241.222 712.392,241.084 713.752,239.783 C714.542,238.817 714.138,239.429 714.785,237.843 z M671.532,96.994 L671.064,97.699 C670.36,98.201 670.794,97.961 669.703,98.306 L669.149,98.285 C668.25,97.918 668.596,98.147 668.049,97.699 C667.216,96.866 667.216,95.516 668.049,94.683 C668.882,93.851 670.232,93.851 671.064,94.683 C671.829,95.834 671.532,95.107 671.532,96.994 z M645.454,111.693 C645.454,112.871 644.499,113.826 643.321,113.826 C642.468,113.683 642.946,113.819 641.93,113.292 L641.553,112.886 C641.177,111.991 641.26,112.397 641.189,111.693 C641.22,110.538 642.166,109.617 643.321,109.617 C644.477,109.617 645.422,110.538 645.454,111.693 z M686.753,112.384 L685.675,111.305 L672.697,98.328 C673.706,96.803 673.538,94.803 672.256,93.492 C670.762,92.018 668.359,92.026 666.875,93.51 C665.391,94.993 665.383,97.397 666.858,98.89 C667.442,99.418 668.032,99.772 668.828,99.939 L669.39,99.941 C670.272,99.901 671.122,99.842 671.831,99.248 L683.702,111.12 L647.082,111.12 C646.703,109.267 645.271,107.903 643.321,107.876 C641.213,107.876 639.505,109.585 639.504,111.693 C639.545,112.48 639.712,113.147 640.156,113.828 L640.553,114.227 C641.496,115.105 641.969,115.476 643.321,115.511 C645.147,115.419 646.739,114.244 647.058,112.384 L686.753,112.384 z M743.728,161.699 L743.728,160.436 L727.44,160.436 L687.594,120.591 C688.591,119.085 688.437,117.112 687.167,115.815 C686.222,114.84 684.825,114.45 683.511,114.795 C682.198,115.14 681.173,116.165 680.828,117.478 C680.484,118.792 680.874,120.189 681.848,121.133 C683.249,122.4 685.136,122.628 686.716,121.5 L726.917,161.699 L743.728,161.699 z M743.728,156.491 L743.728,155.227 L729.576,155.227 L701.5,127.152 C701.606,126.991 701.738,126.847 701.817,126.671 C702.518,125.112 702.338,123.504 701.146,122.263 C699.677,120.795 697.296,120.795 695.828,122.263 C694.359,123.732 694.359,126.113 695.828,127.582 C697.169,128.795 699.037,129.097 700.584,128.022 L728.867,156.306 L729.052,156.491 L743.728,156.491 z M743.728,239.836 L743.728,238.572 L735.824,238.572 L721.124,253.271 C721.117,253.267 721.109,253.262 721.102,253.257 L720.071,252.895 C718.803,252.71 717.607,253.035 716.693,253.928 C715.225,255.397 715.225,257.778 716.693,259.247 C717.27,259.767 717.85,260.115 718.635,260.28 C720.236,260.28 720.787,260.371 722.012,259.247 C723.377,257.737 723.54,255.611 722.128,254.056 L736.346,239.836 L743.728,239.836 z M743.728,146.264 L743.728,145 L740.647,145 L728.316,132.669 C729.345,131.113 729.186,129.223 727.899,127.876 C726.426,126.432 724.064,126.443 722.606,127.902 C721.147,129.361 721.135,131.722 722.58,133.195 C723.972,134.454 725.857,134.693 727.433,133.573 L740.124,146.264 L743.728,146.264 z M862.79,112.65 C864.376,113.297 863.764,112.893 864.731,113.683 C866.199,115.151 866.199,117.533 864.731,119.001 C863.384,120.289 861.494,120.447 859.938,119.419 L847.607,131.75 L847.607,134.83 L846.343,134.83 L846.343,131.226 L859.034,118.535 C857.914,116.959 858.154,115.075 859.412,113.683 C860.602,112.574 861.277,112.65 862.79,112.65 z M736.738,106.764 C735.227,106.764 734.55,106.687 733.361,107.796 C732.84,108.372 732.492,108.953 732.328,109.737 C732.328,111.339 732.236,111.889 733.361,113.114 C734.87,114.479 736.996,114.643 738.552,113.23 L752.771,127.449 L752.771,134.83 L754.035,134.83 L754.035,126.926 L739.336,112.227 L739.35,112.204 L739.712,111.174 C739.898,109.905 739.572,108.71 738.679,107.796 C737.712,107.007 738.324,107.41 736.738,106.764 z M864.473,93.586 L862.686,93.586 L836.302,119.97 L836.117,120.155 L836.117,134.83 L837.38,134.83 L837.38,120.679 L864.473,93.586 z M857.127,93.586 L855.341,93.586 L830.908,118.02 L830.908,134.83 L832.171,134.83 L832.171,118.542 L857.127,93.586 z M827.73,93.586 L825.943,93.586 L810.071,109.458 L810.071,134.83 L811.334,134.83 L811.334,109.981 L827.73,93.586 z M783.482,93.586 L781.695,93.586 L779.002,96.279 L778.817,96.464 L778.817,134.83 L780.08,134.83 L780.08,96.988 L783.482,93.586 z M727.074,86.443 L727.074,64.01 L715.331,52.267 C716.325,50.765 716.161,48.794 714.897,47.502 C713.93,46.713 714.542,47.116 712.955,46.469 C711.444,46.469 710.768,46.393 709.578,47.502 C709.058,48.078 708.71,48.659 708.545,49.443 C708.545,51.045 708.454,51.595 709.578,52.82 C710.985,54.091 712.873,54.313 714.457,53.18 L725.81,64.533 L725.81,86.966 L757.98,119.136 L757.98,134.83 L759.244,134.83 L759.244,118.614 L759.058,118.428 L727.074,86.443 z M873.664,90.085 C871.586,90.085 869.902,91.77 869.902,93.847 C869.987,94.689 870.102,95.645 870.812,96.219 L841.511,125.52 L841.326,125.706 L841.326,134.83 L842.589,134.83 L842.589,126.229 L871.765,97.053 C873.14,97.632 872.495,97.492 873.664,97.609 C875.742,97.609 877.426,95.925 877.426,93.847 C877.426,91.77 875.742,90.085 873.664,90.085 z M776.115,93.586 L774.328,93.586 L773.608,94.307 L773.608,134.83 L774.871,134.83 L774.871,94.83 L776.115,93.586 z M849.783,93.586 L847.996,93.586 L825.699,115.883 L825.699,134.83 L826.962,134.83 L826.962,116.406 L849.783,93.586 z M820.523,93.586 L818.737,93.586 L804.862,107.461 L804.862,134.83 L806.125,134.83 L806.125,107.984 L820.523,93.586 z M764.453,93.586 L763.189,93.586 L763.189,134.83 L764.453,134.83 L764.453,93.586 z M803.751,93.586 L794.377,102.96 L794.377,134.83 L795.64,134.83 L795.64,103.484 L805.537,93.586 L803.751,93.586 z M842.396,93.586 L840.609,93.586 L820.654,113.541 L820.469,113.725 L820.469,134.83 L821.733,134.83 L821.733,114.249 L842.396,93.586 z M812.948,93.586 L811.162,93.586 L799.653,105.095 L799.653,134.83 L800.916,134.83 L800.916,105.618 L812.948,93.586 z M769.662,93.586 L768.398,93.586 L768.398,134.83 L769.662,134.83 L769.662,93.586 z M798.235,93.586 L796.449,93.586 L789.235,100.8 L789.235,134.83 L790.498,134.83 L790.498,101.323 L798.235,93.586 z M835.049,93.586 L833.262,93.586 L815.465,111.383 L815.28,111.568 L815.28,134.83 L816.543,134.83 L816.543,112.091 L835.049,93.586 z M790.848,93.586 L789.062,93.586 L784.211,98.437 L784.026,98.622 L784.026,134.83 L785.289,134.83 L785.289,99.145 L790.848,93.586 z M758.641,23.713 C757.129,23.713 756.453,23.637 755.263,24.746 C754.045,26.093 753.75,27.964 754.83,29.514 L746.694,37.649 L746.694,94.314 L752.421,100.04 C751.385,101.606 751.523,103.494 752.824,104.854 C753.791,105.645 753.179,105.241 754.764,105.887 C756.22,105.887 757.013,105.935 758.142,104.854 C759.61,103.386 759.61,101.005 758.142,99.536 C756.761,98.288 754.881,98.034 753.312,99.144 L747.958,93.79 L747.958,38.173 L755.705,30.425 C757.372,31.528 759.113,31.414 760.582,30.064 C762.051,28.596 762.051,26.215 760.582,24.746 C759.615,23.956 760.227,24.36 758.641,23.713 z M741.044,61.343 L739.781,61.343 L739.781,82.633 C737.98,83.001 736.679,84.452 736.652,86.325 C736.652,88.402 738.336,90.086 740.413,90.086 C742.49,90.086 744.174,88.402 744.174,86.325 C744.081,84.499 742.9,82.942 741.044,82.633 L741.044,61.343 z M740.412,36.297 C738.336,36.297 736.652,37.98 736.652,40.057 C736.744,41.883 737.925,43.44 739.781,43.748 L739.781,61.565 L741.044,61.565 L741.044,43.748 C742.845,43.381 744.146,41.93 744.174,40.057 C744.174,37.98 742.49,36.296 740.412,36.297 z M724.459,28.561 C725.23,28.546 725.949,28.949 726.339,29.615 C726.729,30.281 726.729,31.105 726.339,31.771 C725.949,32.436 725.23,32.839 724.459,32.825 C723.297,32.803 722.367,31.855 722.367,30.693 C722.367,29.531 723.297,28.583 724.459,28.561 z M734.567,68.864 C735.745,68.864 736.7,69.819 736.7,70.997 C736.7,72.174 735.745,73.129 734.567,73.129 C733.389,73.129 732.434,72.174 732.434,70.997 C732.434,69.819 733.389,68.864 734.567,68.864 z M723.827,34.441 L723.827,41.435 L734.087,51.695 L734.087,67.218 C732.128,67.617 730.811,68.929 730.75,70.997 C730.792,73.075 732.488,74.738 734.567,74.738 C736.645,74.738 738.342,73.075 738.384,70.997 C738.295,69.225 737.169,67.61 735.35,67.28 L735.35,51.171 L725.091,40.912 L725.091,34.441 C726.922,34.068 728.248,32.601 728.276,30.693 C728.276,28.585 726.567,26.876 724.459,26.876 C722.351,26.876 720.642,28.585 720.642,30.693 C720.735,32.552 721.94,34.129 723.827,34.441 z M764.961,55.88 Q764.39,55.88 764.178,55.742 Q763.965,55.603 763.965,55.257 Q763.965,54.954 764.138,54.803 Q764.312,54.651 764.658,54.651 L767.081,54.651 Q767.575,54.651 767.74,54.786 Q767.903,54.919 767.903,55.257 Q767.903,55.603 767.688,55.742 Q767.471,55.88 766.891,55.88 L766.571,55.88 L768.822,61.481 L771.323,55.88 L770.803,55.88 Q770.137,55.88 769.904,55.746 Q769.669,55.612 769.669,55.257 Q769.669,54.919 769.834,54.786 Q769.999,54.651 770.492,54.651 L773.167,54.651 Q773.512,54.651 773.686,54.803 Q773.859,54.954 773.859,55.257 Q773.859,55.603 773.647,55.742 Q773.435,55.88 772.864,55.88 L772.708,55.88 L769.851,62.191 Q769.635,62.666 769.422,62.809 Q769.211,62.952 768.804,62.952 Q768.432,62.952 768.228,62.814 Q768.025,62.676 767.808,62.191 z M781.623,62.078 Q781.675,62.355 781.831,62.502 Q781.987,62.649 782.229,62.649 L783.588,62.649 Q783.935,62.649 784.107,62.494 Q784.28,62.338 784.28,62.026 Q784.28,61.689 784.073,61.559 Q783.865,61.429 783.25,61.429 L782.826,61.429 L782.826,57.507 Q782.826,55.993 782.047,55.218 Q781.268,54.444 779.745,54.444 Q778.256,54.444 777.299,54.799 Q776.343,55.153 776.343,55.664 Q776.343,55.985 776.507,56.188 Q776.672,56.391 776.923,56.391 Q777.192,56.391 778.022,56.028 Q778.853,55.664 779.528,55.664 Q780.532,55.664 781.009,56.14 Q781.484,56.616 781.484,57.612 L781.484,57.672 Q780.948,57.534 780.437,57.469 Q779.927,57.404 779.425,57.404 Q777.52,57.404 776.469,58.157 Q775.417,58.91 775.417,60.278 Q775.417,61.429 776.209,62.147 Q777.001,62.866 778.291,62.866 Q779.173,62.866 780.009,62.528 Q780.844,62.191 781.554,61.55 z M781.484,59.758 Q781.484,60.382 780.545,60.957 Q779.606,61.532 778.507,61.532 Q777.762,61.532 777.282,61.152 Q776.802,60.771 776.802,60.183 Q776.802,59.421 777.572,58.971 Q778.343,58.521 779.675,58.521 Q780.117,58.521 780.563,58.594 Q781.009,58.668 781.484,58.824 z M789.352,57.845 Q790.261,56.807 791.01,56.326 Q791.759,55.846 792.434,55.846 Q792.807,55.846 793.278,56.11 Q793.75,56.374 793.949,56.374 Q794.234,56.374 794.473,56.127 Q794.711,55.88 794.711,55.56 Q794.711,55.067 794.234,54.756 Q793.759,54.444 792.988,54.444 Q791.958,54.444 791.066,54.946 Q790.175,55.448 789.352,56.478 L789.352,55.006 Q789.352,54.833 789.232,54.742 Q789.11,54.651 788.877,54.651 L786.903,54.651 Q786.557,54.651 786.388,54.803 Q786.219,54.954 786.219,55.257 Q786.219,55.612 786.427,55.746 Q786.635,55.88 787.474,55.88 L788.063,55.88 L788.063,61.429 L786.557,61.429 Q786.184,61.429 786.007,61.576 Q785.829,61.723 785.829,62.026 Q785.829,62.338 786.003,62.494 Q786.176,62.649 786.514,62.649 L792.175,62.649 Q792.582,62.649 792.733,62.515 Q792.884,62.381 792.884,62.026 Q792.884,61.714 792.724,61.572 Q792.564,61.429 792.227,61.429 L789.352,61.429 z M807.703,62.026 Q807.703,62.424 807.863,62.636 Q808.023,62.848 808.326,62.848 Q808.473,62.848 808.69,62.749 Q808.906,62.649 809.209,62.45 Q810.126,62.666 810.733,62.757 Q811.338,62.848 811.832,62.848 Q813.39,62.848 814.307,62.147 Q815.225,61.446 815.225,60.278 Q815.225,59.057 814.394,58.473 Q813.563,57.889 811.763,57.845 Q810.074,57.811 809.564,57.577 Q809.053,57.343 809.053,56.798 Q809.053,56.244 809.551,55.885 Q810.049,55.526 810.862,55.526 Q811.563,55.526 812.083,55.711 Q812.602,55.898 813.061,56.322 Q813.234,56.478 813.502,56.78 Q813.883,57.222 814.143,57.222 Q814.446,57.222 814.584,57.019 Q814.723,56.815 814.723,56.357 L814.723,55.344 Q814.723,54.911 814.58,54.694 Q814.437,54.479 814.143,54.479 Q813.883,54.479 813.615,54.647 Q813.347,54.816 813.251,54.816 Q813.217,54.816 812.524,54.629 Q811.832,54.444 811.165,54.444 Q809.529,54.444 808.625,55.076 Q807.72,55.708 807.72,56.85 Q807.72,58.019 808.647,58.633 Q809.572,59.248 811.338,59.248 L811.815,59.248 Q812.897,59.248 813.342,59.508 Q813.788,59.767 813.788,60.382 Q813.788,60.987 813.234,61.36 Q812.68,61.732 811.763,61.732 Q810.906,61.732 810.196,61.45 Q809.486,61.169 809.122,60.702 Q809.01,60.555 808.872,60.26 Q808.664,59.776 808.309,59.776 Q807.988,59.776 807.846,59.94 Q807.703,60.105 807.703,60.485 L807.703,62.026 z M821.059,55.136 L821.059,53.379 Q821.059,52.608 820.912,52.392 Q820.764,52.176 820.383,52.176 Q820.046,52.176 819.886,52.353 Q819.726,52.53 819.726,52.903 L819.726,55.136 L818.748,55.136 Q818.012,55.136 817.787,55.266 Q817.562,55.396 817.562,55.751 Q817.562,56.071 817.726,56.213 Q817.891,56.357 818.254,56.357 L819.726,56.357 L819.726,59.516 Q819.726,60.382 819.8,60.797 Q819.873,61.212 820.046,61.515 Q820.383,62.156 821.072,62.481 Q821.759,62.805 822.773,62.805 Q823.37,62.805 824.05,62.649 Q824.729,62.494 825.577,62.156 Q826.088,61.957 826.299,61.745 Q826.512,61.532 826.512,61.247 Q826.512,60.996 826.343,60.823 Q826.174,60.65 825.932,60.65 Q825.672,60.65 824.573,61.109 Q823.473,61.567 822.686,61.567 Q821.794,61.567 821.427,61.117 Q821.059,60.667 821.059,59.248 L821.059,56.357 L824.564,56.357 Q824.928,56.357 825.11,56.205 Q825.292,56.053 825.292,55.751 Q825.292,55.431 825.097,55.283 Q824.902,55.136 824.478,55.136 z M831.905,57.845 Q832.813,56.807 833.562,56.326 Q834.311,55.846 834.986,55.846 Q835.358,55.846 835.83,56.11 Q836.302,56.374 836.5,56.374 Q836.787,56.374 837.024,56.127 Q837.262,55.88 837.262,55.56 Q837.262,55.067 836.787,54.756 Q836.31,54.444 835.54,54.444 Q834.51,54.444 833.619,54.946 Q832.727,55.448 831.905,56.478 L831.905,55.006 Q831.905,54.833 831.783,54.742 Q831.662,54.651 831.428,54.651 L829.455,54.651 Q829.109,54.651 828.94,54.803 Q828.771,54.954 828.771,55.257 Q828.771,55.612 828.979,55.746 Q829.187,55.88 830.026,55.88 L830.615,55.88 L830.615,61.429 L829.109,61.429 Q828.737,61.429 828.559,61.576 Q828.382,61.723 828.382,62.026 Q828.382,62.338 828.555,62.494 Q828.728,62.649 829.065,62.649 L834.726,62.649 Q835.133,62.649 835.285,62.515 Q835.436,62.381 835.436,62.026 Q835.436,61.714 835.276,61.572 Q835.116,61.429 834.778,61.429 L831.905,61.429 z M850.151,55.101 Q849.882,55.101 849.739,55.261 Q849.597,55.421 849.597,55.733 Q849.597,56.053 849.739,56.213 Q849.882,56.374 850.151,56.374 L857.915,56.374 Q858.174,56.374 858.318,56.21 Q858.461,56.045 858.461,55.733 Q858.461,55.431 858.318,55.266 Q858.174,55.101 857.915,55.101 L850.151,55.101 z M850.151,58.001 Q849.882,58.001 849.739,58.166 Q849.597,58.33 849.597,58.642 Q849.597,58.953 849.739,59.118 Q849.882,59.282 850.151,59.282 L857.915,59.282 Q858.174,59.282 858.318,59.118 Q858.461,58.953 858.461,58.642 Q858.461,58.339 858.318,58.17 Q858.174,58.001 857.915,58.001 L850.151,58.001 z M873.876,55.058 Q874.093,55.058 874.188,54.95 Q874.283,54.842 874.318,54.513 L874.578,51.319 L874.578,51.215 Q874.578,50.999 874.482,50.895 Q874.386,50.791 874.188,50.791 L873.357,50.791 Q873.157,50.791 873.062,50.895 Q872.967,50.999 872.967,51.215 L872.967,51.319 L873.236,54.513 Q873.262,54.842 873.361,54.95 Q873.461,55.058 873.677,55.058 z M876.94,55.058 Q877.157,55.058 877.252,54.95 Q877.347,54.842 877.382,54.513 L877.65,51.319 L877.65,51.215 Q877.65,50.999 877.551,50.895 Q877.451,50.791 877.261,50.791 L876.421,50.791 Q876.23,50.791 876.131,50.895 Q876.032,50.999 876.032,51.215 L876.032,51.319 L876.3,54.513 Q876.335,54.842 876.43,54.95 Q876.525,55.058 876.741,55.058 z M883.873,57.828 L888.02,57.828 L888.02,61.429 L887.595,61.429 Q886.963,61.429 886.738,61.559 Q886.513,61.689 886.513,62.026 Q886.513,62.381 886.704,62.515 Q886.894,62.649 887.595,62.649 L889.387,62.649 Q890.045,62.649 890.227,62.515 Q890.409,62.381 890.409,62.026 Q890.409,61.697 890.218,61.563 Q890.028,61.429 889.509,61.429 L889.37,61.429 L889.37,53.63 L889.578,53.63 Q890.045,53.63 890.227,53.487 Q890.409,53.344 890.409,53.007 Q890.409,52.695 890.248,52.54 Q890.088,52.383 889.777,52.383 L887.665,52.383 Q886.903,52.383 886.708,52.518 Q886.513,52.652 886.513,53.007 Q886.513,53.335 886.726,53.483 Q886.938,53.63 887.431,53.63 L888.02,53.63 L888.02,56.642 L883.873,56.642 L883.873,53.63 L884.263,53.63 Q884.912,53.63 885.146,53.492 Q885.379,53.353 885.379,53.007 Q885.379,52.652 885.194,52.518 Q885.007,52.383 884.315,52.383 L882.134,52.383 Q881.796,52.383 881.636,52.535 Q881.476,52.687 881.476,53.007 Q881.476,53.353 881.671,53.492 Q881.866,53.63 882.385,53.63 L882.523,53.63 L882.523,61.429 L882.368,61.429 Q881.848,61.429 881.662,61.559 Q881.476,61.689 881.476,62.026 Q881.476,62.338 881.636,62.494 Q881.796,62.649 882.116,62.649 L884.402,62.649 Q885.016,62.649 885.198,62.515 Q885.379,62.381 885.379,62.026 Q885.379,61.706 885.172,61.567 Q884.964,61.429 884.453,61.429 L883.873,61.429 z M893.698,57.897 Q893.949,56.824 894.736,56.218 Q895.524,55.612 896.675,55.612 Q897.74,55.612 898.471,56.24 Q899.203,56.867 899.333,57.897 L893.698,57.897 z M899.471,59.031 L899.601,59.031 Q900.502,59.031 900.705,58.866 Q900.908,58.702 900.908,58.217 Q900.908,56.642 899.705,55.534 Q898.501,54.426 896.675,54.426 Q894.658,54.426 893.404,55.612 Q892.148,56.798 892.148,58.711 Q892.148,60.59 893.334,61.727 Q894.52,62.866 896.494,62.866 Q897.402,62.866 898.324,62.641 Q899.246,62.416 900.112,61.992 Q900.51,61.792 900.692,61.585 Q900.874,61.377 900.874,61.126 Q900.874,60.883 900.7,60.719 Q900.527,60.555 900.267,60.555 Q900.017,60.555 898.822,61.095 Q897.628,61.637 896.615,61.637 Q895.273,61.637 894.498,60.957 Q893.724,60.278 893.654,59.031 z M906.638,61.429 L904.24,61.429 Q903.877,61.429 903.695,61.576 Q903.513,61.723 903.513,62.026 Q903.513,62.338 903.691,62.494 Q903.868,62.649 904.206,62.649 L910.594,62.649 Q911.001,62.649 911.148,62.515 Q911.295,62.381 911.295,62.026 Q911.295,61.714 911.143,61.572 Q910.992,61.429 910.663,61.429 L907.945,61.429 L907.945,51.674 Q907.945,51.509 907.815,51.414 Q907.685,51.319 907.452,51.319 L904.595,51.319 Q904.258,51.319 904.08,51.475 Q903.903,51.631 903.903,51.942 Q903.903,52.297 904.115,52.431 Q904.327,52.565 905.167,52.565 L906.638,52.565 z M917.276,61.429 L914.878,61.429 Q914.515,61.429 914.333,61.576 Q914.151,61.723 914.151,62.026 Q914.151,62.338 914.329,62.494 Q914.506,62.649 914.844,62.649 L921.232,62.649 Q921.639,62.649 921.786,62.515 Q921.933,62.381 921.933,62.026 Q921.933,61.714 921.781,61.572 Q921.63,61.429 921.301,61.429 L918.583,61.429 L918.583,51.674 Q918.583,51.509 918.453,51.414 Q918.323,51.319 918.09,51.319 L915.233,51.319 Q914.896,51.319 914.718,51.475 Q914.541,51.631 914.541,51.942 Q914.541,52.297 914.753,52.431 Q914.965,52.565 915.805,52.565 L917.276,52.565 z M933.039,58.659 Q933.039,56.815 931.77,55.638 Q930.502,54.461 928.494,54.461 Q926.486,54.461 925.222,55.634 Q923.958,56.807 923.958,58.659 Q923.958,60.511 925.222,61.689 Q926.486,62.866 928.494,62.866 Q930.511,62.866 931.775,61.689 Q933.039,60.511 933.039,58.659 z M928.494,61.654 Q927.161,61.654 926.313,60.815 Q925.464,59.975 925.464,58.659 Q925.464,57.352 926.317,56.5 Q927.17,55.647 928.494,55.647 Q929.818,55.647 930.675,56.5 Q931.532,57.352 931.532,58.659 Q931.532,59.966 930.68,60.81 Q929.827,61.654 928.494,61.654 z M946.602,53.552 L947.822,53.552 Q948.212,53.552 948.398,53.414 Q948.584,53.275 948.584,52.972 Q948.584,52.643 948.407,52.513 Q948.229,52.383 947.753,52.383 L944.949,52.383 Q944.749,52.383 944.611,52.548 Q944.472,52.712 944.472,52.972 Q944.472,53.258 944.641,53.405 Q944.81,53.552 945.147,53.552 L945.251,53.552 L946.568,62.191 Q946.602,62.484 946.684,62.567 Q946.766,62.649 946.94,62.649 L947.588,62.649 Q947.805,62.649 947.9,62.58 Q947.995,62.511 948.056,62.294 L949.718,56.322 L951.596,62.277 Q951.674,62.494 951.778,62.571 Q951.882,62.649 952.081,62.649 L952.695,62.649 Q952.86,62.649 952.934,62.563 Q953.007,62.476 953.033,62.208 L954.262,53.552 L954.366,53.552 Q954.695,53.552 954.86,53.409 Q955.023,53.267 955.023,52.972 Q955.023,52.721 954.877,52.552 Q954.73,52.383 954.539,52.383 L951.743,52.383 Q951.258,52.383 951.081,52.513 Q950.903,52.643 950.903,52.972 Q950.903,53.275 951.09,53.414 Q951.276,53.552 951.674,53.552 L953.033,53.552 L952.185,60.433 L950.497,55.223 Q950.419,54.989 950.311,54.911 Q950.203,54.833 949.951,54.833 L949.562,54.833 Q949.302,54.833 949.203,54.906 Q949.104,54.981 949.026,55.257 L947.537,60.433 z M964.952,58.659 Q964.952,56.815 963.684,55.638 Q962.416,54.461 960.407,54.461 Q958.4,54.461 957.136,55.634 Q955.872,56.807 955.872,58.659 Q955.872,60.511 957.136,61.689 Q958.4,62.866 960.407,62.866 Q962.424,62.866 963.688,61.689 Q964.952,60.511 964.952,58.659 z M960.407,61.654 Q959.075,61.654 958.226,60.815 Q957.378,59.975 957.378,58.659 Q957.378,57.352 958.231,56.5 Q959.083,55.647 960.407,55.647 Q961.732,55.647 962.589,56.5 Q963.446,57.352 963.446,58.659 Q963.446,59.966 962.593,60.81 Q961.741,61.654 960.407,61.654 z M970.198,57.845 Q971.106,56.807 971.855,56.326 Q972.604,55.846 973.279,55.846 Q973.651,55.846 974.123,56.11 Q974.595,56.374 974.793,56.374 Q975.08,56.374 975.317,56.127 Q975.555,55.88 975.555,55.56 Q975.555,55.067 975.08,54.756 Q974.603,54.444 973.833,54.444 Q972.802,54.444 971.911,54.946 Q971.02,55.448 970.198,56.478 L970.198,55.006 Q970.198,54.833 970.076,54.742 Q969.955,54.651 969.721,54.651 L967.748,54.651 Q967.402,54.651 967.233,54.803 Q967.064,54.954 967.064,55.257 Q967.064,55.612 967.272,55.746 Q967.48,55.88 968.319,55.88 L968.907,55.88 L968.907,61.429 L967.402,61.429 Q967.03,61.429 966.852,61.576 Q966.675,61.723 966.675,62.026 Q966.675,62.338 966.848,62.494 Q967.021,62.649 967.358,62.649 L973.019,62.649 Q973.426,62.649 973.578,62.515 Q973.729,62.381 973.729,62.026 Q973.729,61.714 973.569,61.572 Q973.409,61.429 973.071,61.429 L970.198,61.429 z M981.104,61.429 L978.706,61.429 Q978.343,61.429 978.161,61.576 Q977.979,61.723 977.979,62.026 Q977.979,62.338 978.156,62.494 Q978.334,62.649 978.671,62.649 L985.059,62.649 Q985.466,62.649 985.613,62.515 Q985.761,62.381 985.761,62.026 Q985.761,61.714 985.609,61.572 Q985.458,61.429 985.129,61.429 L982.411,61.429 L982.411,51.674 Q982.411,51.509 982.281,51.414 Q982.151,51.319 981.917,51.319 L979.061,51.319 Q978.723,51.319 978.546,51.475 Q978.368,51.631 978.368,51.942 Q978.368,52.297 978.58,52.431 Q978.793,52.565 979.632,52.565 L981.104,52.565 z M989.257,58.763 Q989.257,57.49 990.011,56.703 Q990.763,55.915 991.984,55.915 Q993.187,55.915 993.953,56.694 Q994.719,57.473 994.719,58.676 Q994.719,59.897 993.949,60.689 Q993.179,61.481 991.984,61.481 Q990.798,61.481 990.028,60.719 Q989.257,59.958 989.257,58.763 z M996.597,62.649 Q996.874,62.649 997.039,62.484 Q997.203,62.321 997.203,62.026 Q997.203,61.714 997.013,61.572 Q996.822,61.429 996.399,61.429 L996.009,61.429 L996.009,51.674 Q996.009,51.492 995.892,51.406 Q995.775,51.319 995.515,51.319 L993.741,51.319 Q993.404,51.319 993.226,51.475 Q993.049,51.631 993.049,51.942 Q993.049,52.297 993.269,52.431 Q993.49,52.565 994.243,52.565 L994.702,52.565 L994.702,55.88 Q994.191,55.266 993.481,54.95 Q992.772,54.634 991.88,54.634 Q990.123,54.634 988.946,55.824 Q987.768,57.015 987.768,58.806 Q987.768,60.537 988.872,61.702 Q989.976,62.866 991.612,62.866 Q992.521,62.866 993.299,62.506 Q994.078,62.147 994.598,61.498 L994.598,62.208 Q994.598,62.467 994.671,62.559 Q994.745,62.649 994.927,62.649 z M1001.531,55.058 Q1001.748,55.058 1001.843,54.95 Q1001.938,54.842 1001.973,54.513 L1002.233,51.319 L1002.233,51.215 Q1002.233,50.999 1002.137,50.895 Q1002.042,50.791 1001.843,50.791 L1001.012,50.791 Q1000.813,50.791 1000.717,50.895 Q1000.622,50.999 1000.622,51.215 L1000.622,51.319 L1000.891,54.513 Q1000.917,54.842 1001.016,54.95 Q1001.116,55.058 1001.332,55.058 z M1004.595,55.058 Q1004.812,55.058 1004.907,54.95 Q1005.002,54.842 1005.037,54.513 L1005.305,51.319 L1005.305,51.215 Q1005.305,50.999 1005.206,50.895 Q1005.106,50.791 1004.916,50.791 L1004.076,50.791 Q1003.885,50.791 1003.786,50.895 Q1003.687,50.999 1003.687,51.215 L1003.687,51.319 L1003.955,54.513 Q1003.989,54.842 1004.085,54.95 Q1004.18,55.058 1004.396,55.058 z M769.375,82.568 Q768.172,82.568 767.415,81.806 Q766.657,81.045 766.657,79.85 Q766.657,78.664 767.419,77.903 Q768.18,77.141 769.375,77.141 Q770.57,77.141 771.344,77.907 Q772.119,78.673 772.119,79.85 Q772.119,81.053 771.348,81.81 Q770.578,82.568 769.375,82.568 z M766.692,82.585 Q767.211,83.191 767.982,83.516 Q768.752,83.841 769.669,83.841 Q771.392,83.841 772.5,82.742 Q773.608,81.642 773.608,79.937 Q773.608,78.162 772.44,76.985 Q771.271,75.808 769.531,75.808 Q768.709,75.808 767.995,76.111 Q767.281,76.414 766.692,77.02 L766.692,76.181 Q766.692,75.999 766.575,75.912 Q766.458,75.826 766.199,75.826 L764.883,75.826 Q764.537,75.826 764.36,75.977 Q764.182,76.128 764.182,76.431 Q764.182,76.778 764.402,76.916 Q764.623,77.054 765.22,77.054 L765.385,77.054 L765.385,86.039 L765.22,86.039 Q764.623,86.039 764.402,86.177 Q764.182,86.316 764.182,86.662 Q764.182,86.965 764.36,87.121 Q764.537,87.277 764.883,87.277 L768.7,87.277 Q769.107,87.277 769.267,87.139 Q769.427,87 769.427,86.662 Q769.427,86.35 769.262,86.195 Q769.098,86.039 768.769,86.039 L766.692,86.039 z M778.715,79.019 Q779.623,77.98 780.372,77.5 Q781.121,77.02 781.796,77.02 Q782.169,77.02 782.64,77.283 Q783.112,77.548 783.311,77.548 Q783.596,77.548 783.835,77.301 Q784.073,77.054 784.073,76.734 Q784.073,76.241 783.596,75.929 Q783.121,75.617 782.35,75.617 Q781.32,75.617 780.428,76.119 Q779.537,76.621 778.715,77.652 L778.715,76.181 Q778.715,76.007 778.594,75.916 Q778.472,75.826 778.239,75.826 L776.265,75.826 Q775.919,75.826 775.75,75.977 Q775.581,76.128 775.581,76.431 Q775.581,76.786 775.789,76.92 Q775.997,77.054 776.837,77.054 L777.425,77.054 L777.425,82.602 L775.919,82.602 Q775.547,82.602 775.369,82.75 Q775.192,82.897 775.192,83.2 Q775.192,83.512 775.365,83.667 Q775.538,83.823 775.876,83.823 L781.537,83.823 Q781.944,83.823 782.094,83.689 Q782.246,83.554 782.246,83.2 Q782.246,82.889 782.086,82.745 Q781.926,82.602 781.589,82.602 L778.715,82.602 z M791.006,76.181 Q791.006,76.016 790.871,75.921 Q790.738,75.826 790.504,75.826 L787.968,75.826 Q787.621,75.826 787.448,75.977 Q787.275,76.128 787.275,76.431 Q787.275,76.734 787.461,76.894 Q787.648,77.054 788.003,77.054 L789.69,77.054 L789.69,82.602 L787.05,82.602 Q786.686,82.602 786.505,82.75 Q786.323,82.897 786.323,83.2 Q786.323,83.512 786.496,83.667 Q786.669,83.823 787.016,83.823 L793.732,83.823 Q794.139,83.823 794.291,83.689 Q794.442,83.554 794.442,83.2 Q794.442,82.889 794.282,82.745 Q794.122,82.602 793.784,82.602 L791.006,82.602 z M789.404,73.333 Q789.404,73.852 789.574,74.016 Q789.742,74.18 790.296,74.18 Q790.859,74.18 791.019,74.003 Q791.179,73.825 791.179,73.081 Q791.179,72.32 791.006,72.116 Q790.833,71.913 790.296,71.913 Q789.742,71.913 789.574,72.156 Q789.404,72.398 789.404,73.333 z M797.437,82.602 Q796.849,82.602 796.645,82.728 Q796.442,82.854 796.442,83.2 Q796.442,83.52 796.619,83.672 Q796.797,83.823 797.152,83.823 L799.194,83.823 Q799.8,83.823 799.956,83.694 Q800.112,83.564 800.112,83.2 Q800.112,82.862 799.93,82.732 Q799.748,82.602 799.229,82.602 L798.926,82.602 L798.926,79.002 Q798.926,78.119 799.601,77.522 Q800.276,76.925 801.159,76.925 Q802.034,76.925 802.492,77.457 Q802.951,77.989 802.951,79.002 L802.951,82.602 L802.648,82.602 Q802.146,82.602 801.964,82.732 Q801.782,82.862 801.782,83.2 Q801.782,83.564 801.938,83.694 Q802.094,83.823 802.648,83.823 L804.561,83.823 Q805.08,83.823 805.284,83.681 Q805.487,83.537 805.487,83.2 Q805.487,82.889 805.297,82.745 Q805.106,82.602 804.673,82.602 L804.267,82.602 L804.267,78.682 Q804.267,77.245 803.518,76.431 Q802.769,75.617 801.462,75.617 Q800.795,75.617 800.177,75.899 Q799.558,76.181 798.926,76.769 L798.926,76.181 Q798.926,76.016 798.796,75.921 Q798.666,75.826 798.433,75.826 L797.195,75.826 Q796.788,75.826 796.607,75.968 Q796.425,76.111 796.425,76.431 Q796.425,76.778 796.645,76.916 Q796.866,77.054 797.454,77.054 L797.619,77.054 L797.619,82.602 z M810.421,76.31 L810.421,74.553 Q810.421,73.783 810.274,73.566 Q810.126,73.35 809.746,73.35 Q809.408,73.35 809.248,73.527 Q809.087,73.705 809.087,74.077 L809.087,76.31 L808.11,76.31 Q807.374,76.31 807.149,76.44 Q806.924,76.57 806.924,76.925 Q806.924,77.245 807.088,77.388 Q807.253,77.53 807.616,77.53 L809.087,77.53 L809.087,80.69 Q809.087,81.555 809.162,81.97 Q809.235,82.387 809.408,82.689 Q809.746,83.33 810.434,83.654 Q811.122,83.979 812.135,83.979 Q812.732,83.979 813.411,83.823 Q814.091,83.667 814.939,83.33 Q815.45,83.131 815.662,82.919 Q815.874,82.707 815.874,82.421 Q815.874,82.17 815.705,81.997 Q815.536,81.824 815.294,81.824 Q815.034,81.824 813.935,82.282 Q812.836,82.742 812.048,82.742 Q811.156,82.742 810.789,82.291 Q810.421,81.841 810.421,80.421 L810.421,77.53 L813.926,77.53 Q814.29,77.53 814.471,77.379 Q814.653,77.228 814.653,76.925 Q814.653,76.604 814.459,76.457 Q814.264,76.31 813.839,76.31 z M823.872,73.644 Q823.872,73.471 823.79,73.363 Q823.708,73.255 823.569,73.255 Q823.24,73.255 822.816,73.67 Q822.391,74.085 821.889,74.907 Q821.119,76.154 820.742,77.483 Q820.367,78.812 820.367,80.274 Q820.367,81.875 820.825,83.33 Q821.284,84.784 822.21,86.108 Q822.643,86.732 822.971,87.012 Q823.301,87.294 823.569,87.294 Q823.708,87.294 823.79,87.186 Q823.872,87.077 823.872,86.887 Q823.872,86.705 823.495,85.931 Q823.119,85.156 822.903,84.585 Q822.478,83.529 822.271,82.469 Q822.063,81.408 822.063,80.274 Q822.063,79.045 822.309,77.903 Q822.556,76.76 823.145,75.384 Q823.292,75.029 823.582,74.427 Q823.872,73.825 823.872,73.644 z M828.979,83.2 Q828.979,83.598 829.139,83.81 Q829.299,84.022 829.602,84.022 Q829.749,84.022 829.966,83.923 Q830.182,83.823 830.485,83.624 Q831.403,83.841 832.008,83.931 Q832.614,84.022 833.107,84.022 Q834.666,84.022 835.583,83.321 Q836.5,82.62 836.5,81.451 Q836.5,80.231 835.67,79.647 Q834.839,79.062 833.039,79.019 Q831.35,78.984 830.84,78.751 Q830.329,78.517 830.329,77.972 Q830.329,77.418 830.826,77.058 Q831.325,76.699 832.138,76.699 Q832.839,76.699 833.359,76.886 Q833.878,77.072 834.336,77.496 Q834.51,77.652 834.778,77.955 Q835.159,78.396 835.418,78.396 Q835.722,78.396 835.86,78.192 Q835.998,77.989 835.998,77.53 L835.998,76.518 Q835.998,76.085 835.855,75.869 Q835.713,75.652 835.418,75.652 Q835.159,75.652 834.891,75.821 Q834.622,75.989 834.527,75.989 Q834.493,75.989 833.8,75.804 Q833.107,75.617 832.441,75.617 Q830.805,75.617 829.901,76.249 Q828.996,76.881 828.996,78.024 Q828.996,79.192 829.922,79.807 Q830.848,80.421 832.614,80.421 L833.09,80.421 Q834.172,80.421 834.618,80.681 Q835.063,80.941 835.063,81.555 Q835.063,82.161 834.51,82.534 Q833.956,82.906 833.039,82.906 Q832.182,82.906 831.471,82.624 Q830.761,82.343 830.398,81.875 Q830.286,81.728 830.147,81.434 Q829.939,80.95 829.584,80.95 Q829.264,80.95 829.122,81.114 Q828.979,81.278 828.979,81.66 L828.979,83.2 z M842.334,76.31 L842.334,74.553 Q842.334,73.783 842.188,73.566 Q842.041,73.35 841.659,73.35 Q841.322,73.35 841.162,73.527 Q841.002,73.705 841.002,74.077 L841.002,76.31 L840.023,76.31 Q839.288,76.31 839.063,76.44 Q838.838,76.57 838.838,76.925 Q838.838,77.245 839.002,77.388 Q839.166,77.53 839.53,77.53 L841.002,77.53 L841.002,80.69 Q841.002,81.555 841.075,81.97 Q841.149,82.387 841.322,82.689 Q841.659,83.33 842.348,83.654 Q843.036,83.979 844.048,83.979 Q844.645,83.979 845.325,83.823 Q846.004,83.667 846.853,83.33 Q847.363,83.131 847.575,82.919 Q847.788,82.707 847.788,82.421 Q847.788,82.17 847.619,81.997 Q847.45,81.824 847.208,81.824 Q846.948,81.824 845.849,82.282 Q844.75,82.742 843.962,82.742 Q843.07,82.742 842.703,82.291 Q842.334,81.841 842.334,80.421 L842.334,77.53 L845.84,77.53 Q846.204,77.53 846.386,77.379 Q846.567,77.228 846.567,76.925 Q846.567,76.604 846.373,76.457 Q846.178,76.31 845.754,76.31 z M853.18,79.019 Q854.089,77.98 854.838,77.5 Q855.586,77.02 856.262,77.02 Q856.634,77.02 857.106,77.283 Q857.577,77.548 857.776,77.548 Q858.062,77.548 858.3,77.301 Q858.538,77.054 858.538,76.734 Q858.538,76.241 858.062,75.929 Q857.586,75.617 856.815,75.617 Q855.785,75.617 854.894,76.119 Q854.003,76.621 853.18,77.652 L853.18,76.181 Q853.18,76.007 853.059,75.916 Q852.938,75.826 852.704,75.826 L850.731,75.826 Q850.384,75.826 850.216,75.977 Q850.047,76.128 850.047,76.431 Q850.047,76.786 850.254,76.92 Q850.462,77.054 851.302,77.054 L851.89,77.054 L851.89,82.602 L850.384,82.602 Q850.012,82.602 849.834,82.75 Q849.657,82.897 849.657,83.2 Q849.657,83.512 849.831,83.667 Q850.004,83.823 850.341,83.823 L856.002,83.823 Q856.409,83.823 856.56,83.689 Q856.712,83.554 856.712,83.2 Q856.712,82.889 856.552,82.745 Q856.392,82.602 856.054,82.602 L853.18,82.602 z M862.901,86.887 Q862.901,87.069 862.988,87.182 Q863.073,87.294 863.213,87.294 Q863.541,87.294 863.943,86.896 Q864.346,86.498 864.882,85.65 Q865.653,84.403 866.038,83.07 Q866.424,81.737 866.424,80.274 Q866.424,78.673 865.964,77.21 Q865.506,75.747 864.58,74.432 Q864.147,73.817 863.823,73.536 Q863.498,73.255 863.213,73.255 Q863.073,73.255 862.988,73.363 Q862.901,73.471 862.901,73.644 Q862.901,73.835 863.273,74.609 Q863.645,75.384 863.87,75.955 Q864.303,77.028 864.515,78.097 Q864.727,79.167 864.727,80.274 Q864.727,81.495 864.476,82.642 Q864.225,83.789 863.645,85.173 Q863.49,85.528 863.195,86.121 Q862.901,86.714 862.901,86.887 z M966.897,268.778 L967.452,268.78 C968.236,268.944 968.817,269.292 969.393,269.813 C970.696,271.176 970.83,273.063 969.793,274.631 L984.898,289.737 L1046.599,289.737 L1057.116,300.255 C1058.693,299.132 1060.578,299.368 1061.974,300.629 C1063.418,302.102 1063.407,304.464 1061.948,305.922 C1060.489,307.381 1058.128,307.393 1056.655,305.948 C1055.378,304.645 1055.235,302.671 1056.235,301.16 L1046.075,291 L984.375,291 L968.901,275.526 C967.333,276.634 965.453,276.377 964.074,275.131 C962.995,274.002 963.042,273.209 963.042,271.753 C963.688,270.168 963.285,270.78 964.074,269.813 C964.944,268.937 965.724,268.821 966.897,268.778 z M865.5,233.007 L856.375,233.007 L856.375,234.27 L864.977,234.27 L929.7,298.993 L1000.898,298.993 C1001.256,300.747 1002.779,301.97 1004.564,302 C1006.641,302 1008.325,300.316 1008.325,298.239 C1008.325,296.162 1006.641,294.479 1004.564,294.479 C1002.668,294.574 1001.144,295.82 1000.848,297.729 L930.223,297.729 L865.685,233.191 L865.5,233.007 z M956.782,270.463 C957.635,270.606 957.157,270.47 958.174,270.996 L958.55,271.403 C958.927,272.298 958.844,271.891 958.915,272.595 C958.915,273.773 957.96,274.727 956.782,274.727 C955.605,274.727 954.65,273.773 954.65,272.595 C954.65,271.417 955.605,270.463 956.782,270.463 z M930.4,285.982 L930.954,286.004 C931.854,286.371 931.507,286.142 932.055,286.59 C932.887,287.422 932.887,288.772 932.055,289.605 C931.222,290.438 929.872,290.438 929.039,289.605 C928.275,288.454 928.571,289.182 928.571,287.295 L929.039,286.59 C929.744,286.087 929.31,286.328 930.4,285.982 z M956.782,268.778 C954.957,268.87 953.365,270.043 953.046,271.905 L913.351,271.905 L914.429,272.983 L927.406,285.96 C926.398,287.485 926.566,289.486 927.848,290.796 C929.339,292.287 931.756,292.287 933.246,290.796 C934.737,289.305 934.737,286.888 933.246,285.398 C932.662,284.87 932.072,284.517 931.276,284.35 L930.714,284.348 C929.832,284.388 928.981,284.446 928.273,285.04 L916.401,273.168 L953.022,273.168 C953.4,275.022 954.832,276.386 956.782,276.412 C958.89,276.412 960.599,274.703 960.599,272.595 C960.56,271.808 960.392,271.142 959.947,270.461 L959.55,270.062 C958.608,269.184 958.134,268.813 956.782,268.778 z M875.323,217.379 L856.375,217.379 L856.375,218.643 L874.799,218.643 L914.753,258.596 L914.939,258.781 L967.295,258.781 L985.725,277.212 L1005.674,277.212 C1006.044,279.028 1007.472,280.353 1009.372,280.38 C1011.449,280.38 1013.133,278.696 1013.133,276.619 C1013.133,274.542 1011.449,272.858 1009.372,272.858 C1007.569,272.949 1006.002,274.11 1005.689,275.949 L986.248,275.949 L967.818,257.518 L915.461,257.518 L875.323,217.379 z M877.48,212.151 L856.375,212.151 L856.375,213.414 L876.957,213.414 L917.096,253.553 L969.416,253.553 L987.507,271.644 L1024.112,271.644 L1024.112,270.381 L988.031,270.381 L969.938,252.29 L917.619,252.29 L877.666,212.336 L877.48,212.151 z M873.187,222.588 L856.375,222.588 L856.375,223.852 L872.663,223.852 L912.509,263.697 C911.513,265.204 911.666,267.176 912.937,268.474 C914.405,269.943 916.786,269.943 918.255,268.474 C919.725,267.006 919.725,264.624 918.255,263.155 C916.855,261.889 914.967,261.661 913.386,262.789 L873.187,222.588 z M879.638,206.961 L856.375,206.961 L856.375,208.225 L879.115,208.225 L919.183,248.294 L971.57,248.294 L990.153,266.877 L1024.112,266.877 L1024.112,265.614 L990.677,265.614 L972.278,247.215 L972.092,247.03 L919.707,247.03 L879.823,207.147 L879.638,206.961 z M871.051,227.797 L856.375,227.797 L856.375,229.061 L870.528,229.061 L898.604,257.137 C898.498,257.297 898.365,257.442 898.286,257.617 C897.586,259.177 897.766,260.785 898.958,262.025 C900.427,263.494 902.808,263.494 904.276,262.025 C905.745,260.556 905.745,258.175 904.276,256.706 C902.935,255.493 901.066,255.192 899.519,256.266 L871.236,227.983 L871.051,227.797 z M859.98,238.025 L856.375,238.025 L856.375,239.288 L859.457,239.288 L871.788,251.619 C870.758,253.175 870.918,255.066 872.205,256.412 C873.68,257.842 876.029,257.824 877.482,256.371 C878.935,254.918 878.954,252.569 877.523,251.093 C876.131,249.835 874.246,249.595 872.671,250.716 L859.98,238.025 z M994.316,256.581 L1024.112,256.581 L1024.112,255.318 L994.839,255.318 L976.411,236.891 L924.092,236.891 L883.745,196.544 L856.375,196.544 L856.375,197.807 L883.221,197.807 L923.569,238.154 L975.889,238.154 L994.316,256.581 z M996.865,251.555 L1023.935,251.555 L1023.935,250.291 L997.388,250.291 L978.569,231.473 L926.25,231.473 L886.111,191.335 L856.375,191.335 L856.375,192.598 L885.587,192.598 L925.542,232.552 L925.726,232.737 L978.046,232.737 L996.865,251.555 z M1024.112,245.109 L999.573,245.109 L980.89,226.426 L980.704,226.241 L928.429,226.241 L888.431,186.243 L888.246,186.058 L856.375,186.058 L856.375,187.322 L887.723,187.322 L927.906,227.504 L980.181,227.504 L999.049,246.373 L1024.112,246.373 L1024.112,245.109 z M973.355,240.391 C974.533,240.39 975.488,241.345 975.487,242.523 C975.487,243.701 974.532,244.655 973.355,244.655 C972.177,244.655 971.222,243.701 971.222,242.523 C971.223,241.345 972.177,240.391 973.355,240.391 z M881.748,201.752 L856.375,201.752 L856.375,203.016 L881.225,203.016 L921.226,243.017 L921.411,243.202 L969.617,243.202 C969.986,245.015 971.482,246.311 973.355,246.34 C974.737,246.368 976.026,245.646 976.725,244.454 C977.424,243.262 977.424,241.784 976.725,240.592 C976.026,239.4 974.737,238.678 973.355,238.706 C971.47,238.801 969.904,240.03 969.597,241.938 L921.934,241.938 L881.934,201.938 L881.748,201.752 z M890.406,180.916 L856.375,180.916 L856.375,182.179 L889.883,182.179 L930.181,222.478 L982.341,222.478 L1001.651,241.787 L1024.112,241.787 L1024.112,240.524 L1002.174,240.524 L982.864,221.214 L930.704,221.214 L890.406,180.916 z M892.585,175.707 L856.375,175.707 L856.375,176.97 L892.061,176.97 L932.2,217.109 L984.519,217.109 L1004.373,236.963 L1024.112,236.963 L1024.112,235.7 L1004.897,235.7 L985.228,216.03 L985.042,215.846 L932.723,215.846 L892.77,175.892 L892.585,175.707 z M896.9,165.289 L856.375,165.289 L856.375,166.552 L896.376,166.552 L936.515,206.691 L988.834,206.691 L1005.739,223.596 C1004.654,225.237 1004.769,227.02 1006.108,228.461 C1007.581,229.906 1009.943,229.894 1011.402,228.436 C1012.86,226.977 1012.872,224.615 1011.427,223.142 C1010.073,221.919 1008.201,221.632 1006.647,222.717 L989.358,205.427 L937.038,205.427 L896.9,165.289 z M899.114,160.08 L856.375,160.08 L856.375,161.343 L898.591,161.343 L938.545,201.297 L938.729,201.482 L991.1,201.482 L1008.413,218.795 L1008.598,218.98 L1023.277,218.98 C1023.648,220.795 1025.077,222.119 1026.976,222.146 C1029.053,222.146 1030.737,220.462 1030.736,218.385 C1030.736,216.308 1029.053,214.624 1026.976,214.624 C1025.171,214.716 1023.604,215.877 1023.292,217.716 L1009.122,217.716 L991.623,200.218 L939.253,200.218 L899.114,160.08 z M894.742,170.498 L856.375,170.498 L856.375,171.761 L894.218,171.761 L934.517,212.06 L978.405,212.06 C978.776,213.879 980.197,215.212 982.105,215.238 C984.182,215.238 985.866,213.555 985.866,211.478 C985.866,209.4 984.182,207.717 982.105,207.717 C980.308,207.808 978.739,208.963 978.425,210.797 L935.041,210.797 L894.927,170.683 L894.742,170.498 z M1019.972,209.042 L1020.526,209.064 C1021.425,209.431 1021.078,209.202 1021.627,209.65 C1022.459,210.482 1022.459,211.832 1021.627,212.665 C1020.794,213.498 1019.444,213.498 1018.611,212.665 C1017.846,211.514 1018.142,212.242 1018.142,210.355 L1018.611,209.65 C1019.315,209.148 1018.881,209.388 1019.972,209.042 z M925.137,173.873 C923.965,173.916 923.184,174.032 922.315,174.908 C921.525,175.875 921.929,175.263 921.281,176.849 C921.281,178.305 921.234,179.097 922.315,180.226 C923.641,181.425 925.503,181.746 927.041,180.688 L942.771,196.419 L1004.472,196.419 L1017.015,208.963 C1015.962,210.556 1016.095,212.471 1017.42,213.856 C1018.913,215.331 1021.317,215.323 1022.8,213.839 C1024.284,212.355 1024.292,209.952 1022.818,208.458 C1022.234,207.93 1021.644,207.577 1020.848,207.41 L1020.285,207.408 C1019.433,207.446 1018.59,207.494 1017.902,208.063 L1004.995,195.156 L943.295,195.156 L927.966,179.827 C928.079,179.657 928.22,179.502 928.304,179.316 C929.01,177.761 928.821,176.146 927.633,174.908 C927.058,174.388 926.477,174.04 925.692,173.876 L925.137,173.873 z M1014.701,180.185 C1012.875,180.277 1011.318,181.458 1011.01,183.314 L949.394,183.314 C949.028,181.513 947.577,180.212 945.704,180.185 C943.627,180.185 941.943,181.868 941.943,183.945 C941.943,186.023 943.627,187.706 945.704,187.706 C947.53,187.614 949.087,186.432 949.394,184.577 L1011.01,184.577 C1011.378,186.378 1012.828,187.678 1014.701,187.706 C1016.778,187.706 1018.462,186.023 1018.462,183.945 C1018.462,181.868 1016.778,180.185 1014.701,180.185 z M913.505,154.871 L856.375,154.871 L856.375,156.134 L912.983,156.134 L932.643,175.795 L1007.012,175.795 L1017.106,165.702 C1018.567,166.668 1020.527,166.386 1021.756,165.191 C1023.201,163.718 1023.19,161.356 1021.731,159.897 C1020.272,158.439 1017.91,158.427 1016.438,159.872 C1015.111,161.34 1014.97,163.247 1016.154,164.867 L1006.489,174.532 L933.167,174.532 L913.505,154.871 z M927.696,154.999 L928.25,155.02 C929.15,155.387 928.803,155.158 929.352,155.606 C930.184,156.439 930.184,157.789 929.351,158.622 C928.518,159.454 927.168,159.454 926.335,158.621 C925.571,157.47 925.867,158.198 925.867,156.311 L926.335,155.606 C927.04,155.104 926.606,155.345 927.696,154.999 z M1008.565,154.999 L1009.119,155.02 C1010.019,155.387 1009.672,155.158 1010.219,155.606 C1011.052,156.438 1011.052,157.788 1010.219,158.621 C1009.386,159.454 1008.036,159.454 1007.203,158.621 C1006.439,157.47 1006.736,158.198 1006.736,156.311 L1007.203,155.606 C1007.908,155.104 1007.474,155.345 1008.565,154.999 z M1008.878,153.365 C1007.59,153.411 1006.993,153.483 1006.012,154.414 C1004.746,155.816 1004.488,157.725 1005.615,159.317 L996.086,168.845 L940.469,168.845 L930.94,159.317 C931.997,157.719 931.873,155.806 930.543,154.414 C929.958,153.886 929.369,153.534 928.573,153.366 L928.01,153.365 C926.722,153.411 926.125,153.483 925.144,154.414 C924.344,155.396 924.753,154.775 924.096,156.384 C924.097,157.862 924.048,158.666 925.144,159.812 C926.546,161.079 928.454,161.337 930.047,160.211 L939.76,169.924 L939.945,170.109 L996.61,170.109 L1006.508,160.211 C1008.106,161.267 1010.02,161.143 1011.411,159.812 C1012.901,158.322 1012.901,155.905 1011.411,154.414 C1010.826,153.886 1010.237,153.534 1009.44,153.366 L1008.878,153.365 z M928.007,143.47 C926.834,143.513 926.054,143.629 925.184,144.505 C924.395,145.471 924.798,144.859 924.152,146.446 C924.152,147.901 924.104,148.694 925.184,149.823 C926.529,151.038 928.397,151.338 929.945,150.262 L939.347,159.664 L939.532,159.849 L996.196,159.849 L996.381,159.664 L1006.456,149.588 L1052.569,149.588 C1052.932,151.366 1054.419,152.629 1056.249,152.658 C1058.326,152.658 1060.01,150.974 1060.01,148.897 C1060.01,146.82 1058.326,145.136 1056.249,145.136 C1054.389,145.23 1052.846,146.443 1052.545,148.325 L1005.933,148.325 L995.672,158.586 L940.055,158.586 L930.859,149.389 C931.97,147.709 931.858,145.987 930.502,144.505 C929.927,143.985 929.346,143.637 928.562,143.472 L928.007,143.47 z M953.556,138.376 L896.892,138.376 L891.166,144.102 C889.599,143.067 887.712,143.204 886.352,144.505 C885.562,145.471 885.966,144.859 885.319,146.446 C885.319,147.901 885.271,148.694 886.352,149.823 C887.82,151.292 890.201,151.292 891.67,149.823 C892.918,148.443 893.172,146.562 892.062,144.992 L897.416,139.639 L953.033,139.639 L960.78,147.386 C959.678,149.054 959.792,150.795 961.141,152.263 C962.616,153.693 964.966,153.675 966.419,152.222 C967.872,150.77 967.89,148.42 966.46,146.945 C965.113,145.726 963.242,145.432 961.692,146.511 L953.556,138.376 z M994.576,100.225 C993.403,100.267 992.623,100.383 991.753,101.259 C990.482,102.666 990.26,104.555 991.393,106.139 L980.04,117.491 L904.24,117.491 L872.069,149.662 L856.375,149.662 L856.375,150.925 L872.593,150.925 L872.778,150.74 L904.762,118.755 L980.563,118.755 L992.305,107.013 C993.808,108.007 995.78,107.843 997.071,106.578 C998.54,105.109 998.54,102.728 997.071,101.259 C996.496,100.739 995.914,100.391 995.13,100.227 L994.576,100.225 z M880.914,124.008 C879.742,124.049 878.961,124.165 878.091,125.042 C876.727,126.551 876.564,128.678 877.976,130.233 L863.757,144.453 L856.375,144.453 L856.375,145.716 L864.28,145.716 L878.979,131.016 L879.002,131.032 L880.033,131.393 C881.301,131.579 882.497,131.254 883.41,130.361 C884.879,128.892 884.879,126.51 883.41,125.042 C882.834,124.521 882.253,124.174 881.469,124.009 L880.914,124.008 z M1013.024,128.333 C1011.198,128.425 1009.641,129.606 1009.333,131.462 L908.572,131.462 C908.205,129.661 906.755,128.36 904.882,128.333 C902.804,128.333 901.121,130.017 901.12,132.094 C901.121,134.171 902.805,135.854 904.882,135.854 C906.708,135.762 908.265,134.581 908.572,132.725 L1009.333,132.725 C1009.7,134.526 1011.151,135.827 1013.024,135.854 C1015.101,135.854 1016.784,134.171 1016.784,132.093 C1016.784,130.016 1015.101,128.333 1013.024,128.333 z M1040.177,114.007 C1041.328,114.045 1042.241,114.989 1042.241,116.14 C1042.241,117.291 1041.328,118.235 1040.177,118.273 C1039.027,118.235 1038.114,117.291 1038.114,116.14 C1038.114,114.989 1039.027,114.045 1040.177,114.007 z M920.21,124.116 C920.981,124.101 921.7,124.504 922.09,125.17 C922.48,125.836 922.48,126.66 922.09,127.326 C921.7,127.991 920.981,128.394 920.21,128.38 C919.048,128.358 918.118,127.41 918.118,126.248 C918.118,125.086 919.048,124.138 920.21,124.116 z M1040.177,112.323 C1038.319,112.417 1036.74,113.621 1036.429,115.508 L989.216,115.508 L978.956,125.769 L923.989,125.769 C923.589,123.81 922.278,122.492 920.21,122.431 C918.102,122.431 916.393,124.14 916.393,126.248 C916.393,128.356 918.102,130.065 920.21,130.065 C921.982,129.975 923.596,128.851 923.927,127.032 L979.48,127.032 L989.74,116.771 L1036.429,116.771 C1036.803,118.603 1038.269,119.929 1040.177,119.957 C1042.255,119.915 1043.918,118.219 1043.918,116.14 C1043.918,114.062 1042.255,112.365 1040.177,112.323 z M1099.627,246.766 L1099.627,270.356 C1099.627,273.563 1097.037,276.171 1093.821,276.171 L1033.745,276.171 C1030.529,276.171 1027.921,273.563 1027.921,270.356 L1027.903,246.775 L1034.016,246.775 L1034.016,266.103 C1034.016,267.508 1035.155,268.647 1036.56,268.647 L1070.748,268.647 C1072.154,268.648 1073.294,267.508 1073.294,266.103 L1073.294,246.766 L1099.627,246.766 z M1093.811,230.781 L1033.737,230.782 C1030.52,230.782 1027.912,233.39 1027.912,236.598 L1027.912,245.249 L1034.061,245.242 C1034.601,243.904 1034.995,243.282 1036.56,243.156 L1070.748,243.156 C1072.023,243.286 1072.877,243.939 1073.242,245.192 L1099.6,245.176 L1099.618,236.598 C1099.618,233.39 1097.019,230.782 1093.811,230.781 z M1084.106,229.964 L1090.513,229.964 L1089.895,228.037 L1084.552,228.037 z M1035.209,229.982 L1044.741,229.982 L1043.478,227.011 L1036.363,227.011 z M1060.789,228.955 L1060.789,225.993 L1066.923,225.993 L1066.923,228.955 L1060.789,228.955 z M1055.173,224.803 L1051.902,230.019 L1076.019,230.019 L1072.457,224.803 L1055.173,224.803 z M1046.288,254.375 C1046.927,254.375 1047.478,254.148 1047.936,253.694 C1048.38,253.262 1048.628,252.666 1048.62,252.045 C1048.62,251.376 1048.391,250.81 1047.936,250.356 C1047.505,249.909 1046.908,249.662 1046.288,249.671 C1045.619,249.671 1045.056,249.897 1044.598,250.356 C1044.139,250.81 1043.913,251.376 1043.913,252.045 C1043.913,252.685 1044.139,253.235 1044.598,253.694 C1045.056,254.148 1045.619,254.375 1046.288,254.375 M1062.636,257.287 L1056.389,250.827 L1050.998,259.012 L1048.133,256.631 L1043.913,262.118 L1043.913,263.719 L1062.636,263.719 z M1062.84,227.119 C1062.933,227.119 1063.012,227.086 1063.079,227.02 C1063.144,226.958 1063.18,226.871 1063.179,226.781 C1063.181,226.689 1063.145,226.6 1063.079,226.536 C1063.016,226.471 1062.93,226.435 1062.84,226.437 C1062.748,226.435 1062.659,226.471 1062.595,226.536 C1062.529,226.6 1062.493,226.689 1062.496,226.781 C1062.495,226.872 1062.532,226.959 1062.596,227.023 C1062.661,227.087 1062.749,227.121 1062.84,227.119 M1065.211,227.541 L1064.305,226.604 L1063.523,227.791 L1063.108,227.446 L1062.496,228.242 L1062.496,228.474 L1065.211,228.474 z" fill="#FFFFFF"/>
      <path d="M1056.06,225.689 L1087.958,147.584 M1081.98,241.596 L1147.734,174.212" fill-opacity="0" stroke="#FFFFFF" stroke-width="1" stroke-dasharray="2,2"/>
      <path d="M1142.801,163.007 L1094.383,163.007 L1094.383,158.867 L1105.296,144.678 L1112.703,150.835 L1126.645,129.667 L1142.801,146.374 z M1100.522,138.844 C1098.795,138.844 1097.338,138.259 1096.153,137.083 C1094.968,135.897 1094.383,134.473 1094.383,132.819 C1094.383,131.091 1094.968,129.626 1096.153,128.449 C1097.338,127.264 1098.795,126.679 1100.522,126.679 C1102.177,126.679 1103.601,127.264 1104.786,128.449 C1105.963,129.626 1106.555,131.091 1106.555,132.819 C1106.555,134.473 1105.963,135.897 1104.786,137.083 C1103.601,138.259 1102.177,138.844 1100.522,138.844" fill="#FFFFFF"/>
    </g>
  </g>
</svg>
